%TF.GenerationSoftware,KiCad,Pcbnew,5.1.9-73d0e3b20d~88~ubuntu20.04.1*%
%TF.CreationDate,2021-03-01T20:45:33+00:00*%
%TF.ProjectId,variable_duty_cycle_module,66697273-745f-4636-9972-637569742e6b,rev?*%
%TF.SameCoordinates,Original*%
%TF.FileFunction,Copper,L1,Top*%
%TF.FilePolarity,Positive*%
%FSLAX46Y46*%
G04 Gerber Fmt 4.6, Leading zero omitted, Abs format (unit mm)*
G04 Created by KiCad (PCBNEW 5.1.9-73d0e3b20d~88~ubuntu20.04.1) date 2021-03-01 20:45:33*
%MOMM*%
%LPD*%
G01*
G04 APERTURE LIST*
%TA.AperFunction,ComponentPad*%
%ADD10C,2.600000*%
%TD*%
%TA.AperFunction,ComponentPad*%
%ADD11R,2.600000X2.600000*%
%TD*%
%TA.AperFunction,ComponentPad*%
%ADD12C,2.340000*%
%TD*%
%TA.AperFunction,ComponentPad*%
%ADD13O,2.000000X1.905000*%
%TD*%
%TA.AperFunction,ComponentPad*%
%ADD14R,2.000000X1.905000*%
%TD*%
%TA.AperFunction,ComponentPad*%
%ADD15C,1.524000*%
%TD*%
%TA.AperFunction,ComponentPad*%
%ADD16R,1.200000X1.200000*%
%TD*%
%TA.AperFunction,ComponentPad*%
%ADD17C,1.200000*%
%TD*%
%TA.AperFunction,ComponentPad*%
%ADD18C,1.600000*%
%TD*%
%TA.AperFunction,ComponentPad*%
%ADD19O,2.200000X2.200000*%
%TD*%
%TA.AperFunction,ComponentPad*%
%ADD20R,2.200000X2.200000*%
%TD*%
%TA.AperFunction,ComponentPad*%
%ADD21O,1.600000X1.600000*%
%TD*%
%TA.AperFunction,ComponentPad*%
%ADD22R,1.905000X2.000000*%
%TD*%
%TA.AperFunction,ComponentPad*%
%ADD23O,1.905000X2.000000*%
%TD*%
%TA.AperFunction,ViaPad*%
%ADD24C,0.762000*%
%TD*%
%TA.AperFunction,Conductor*%
%ADD25C,0.254000*%
%TD*%
%TA.AperFunction,Conductor*%
%ADD26C,3.048000*%
%TD*%
%TA.AperFunction,Conductor*%
%ADD27C,1.524000*%
%TD*%
%TA.AperFunction,Conductor*%
%ADD28C,0.100000*%
%TD*%
G04 APERTURE END LIST*
D10*
%TO.P,J1,2*%
%TO.N,Net-(J1-Pad2)*%
X134620000Y-115570000D03*
D11*
%TO.P,J1,1*%
%TO.N,Net-(J1-Pad1)*%
X139700000Y-115570000D03*
%TD*%
D12*
%TO.P,VR1,3*%
%TO.N,Net-(D2-Pad1)*%
X175260000Y-93980000D03*
%TO.P,VR1,2*%
%TO.N,Net-(C1-Pad1)*%
X175260000Y-88980000D03*
%TO.P,VR1,1*%
%TO.N,Net-(D1-Pad2)*%
X175260000Y-83820000D03*
%TD*%
D13*
%TO.P,Q1,3*%
%TO.N,GND*%
X118110000Y-86360000D03*
%TO.P,Q1,2*%
%TO.N,Net-(Q1-Pad2)*%
X118110000Y-91440000D03*
D14*
%TO.P,Q1,1*%
%TO.N,Net-(J1-Pad1)*%
X118110000Y-88900000D03*
%TD*%
D15*
%TO.P,U1,8*%
%TO.N,/9VDC*%
X153670000Y-85022000D03*
%TO.P,U1,7*%
%TO.N,Net-(D1-Pad1)*%
X156210000Y-85022000D03*
%TO.P,U1,6*%
%TO.N,Net-(C1-Pad1)*%
X158750000Y-85022000D03*
%TO.P,U1,5*%
%TO.N,Net-(U1-Pad5)*%
X161290000Y-85022000D03*
%TO.P,U1,4*%
%TO.N,/9VDC*%
X161290000Y-92642000D03*
%TO.P,U1,3*%
%TO.N,Net-(R3-Pad2)*%
X158750000Y-92642000D03*
%TO.P,U1,2*%
%TO.N,Net-(C1-Pad1)*%
X156210000Y-92642000D03*
%TO.P,U1,1*%
%TO.N,GND*%
X153670000Y-92642000D03*
%TD*%
D10*
%TO.P,J2,2*%
%TO.N,GND*%
X139700000Y-64770000D03*
D11*
%TO.P,J2,1*%
%TO.N,VCC*%
X134620000Y-64770000D03*
%TD*%
D16*
%TO.P,C1,1*%
%TO.N,Net-(C1-Pad1)*%
X146050000Y-97790000D03*
D17*
%TO.P,C1,2*%
%TO.N,GND*%
X148050000Y-97790000D03*
%TD*%
%TO.P,C3,2*%
%TO.N,GND*%
X145955000Y-88900000D03*
D16*
%TO.P,C3,1*%
%TO.N,VCC*%
X147955000Y-88900000D03*
%TD*%
D18*
%TO.P,C4,1*%
%TO.N,/9VDC*%
X161290000Y-99060000D03*
%TO.P,C4,2*%
%TO.N,GND*%
X156290000Y-99060000D03*
%TD*%
D19*
%TO.P,D1,2*%
%TO.N,Net-(D1-Pad2)*%
X161290000Y-63500000D03*
D20*
%TO.P,D1,1*%
%TO.N,Net-(D1-Pad1)*%
X151130000Y-63500000D03*
%TD*%
D19*
%TO.P,D2,2*%
%TO.N,Net-(D1-Pad1)*%
X151130000Y-71120000D03*
D20*
%TO.P,D2,1*%
%TO.N,Net-(D2-Pad1)*%
X161290000Y-71120000D03*
%TD*%
D18*
%TO.P,R1,1*%
%TO.N,Net-(D1-Pad1)*%
X153670000Y-78740000D03*
D21*
%TO.P,R1,2*%
%TO.N,/9VDC*%
X161290000Y-78740000D03*
%TD*%
D18*
%TO.P,R2,1*%
%TO.N,Net-(Q1-Pad2)*%
X153670000Y-114300000D03*
D21*
%TO.P,R2,2*%
%TO.N,GND*%
X161290000Y-114300000D03*
%TD*%
%TO.P,R3,2*%
%TO.N,Net-(R3-Pad2)*%
X161290000Y-106680000D03*
D18*
%TO.P,R3,1*%
%TO.N,Net-(Q1-Pad2)*%
X153670000Y-106680000D03*
%TD*%
D22*
%TO.P,U2,1*%
%TO.N,VCC*%
X143510000Y-80010000D03*
D23*
%TO.P,U2,2*%
%TO.N,GND*%
X146050000Y-80010000D03*
%TO.P,U2,3*%
%TO.N,/9VDC*%
X148590000Y-80010000D03*
%TD*%
D24*
%TO.N,Net-(Q1-Pad2)*%
X129540000Y-91440000D03*
%TD*%
D25*
%TO.N,Net-(C1-Pad1)*%
X146050000Y-96936000D02*
X147736000Y-95250000D01*
X146050000Y-97790000D02*
X146050000Y-96936000D01*
X147736000Y-95250000D02*
X154940000Y-95250000D01*
X156210000Y-93980000D02*
X156210000Y-92642000D01*
X154940000Y-95250000D02*
X156210000Y-93980000D01*
X156210000Y-92642000D02*
X156210000Y-91440000D01*
X156210000Y-91440000D02*
X158750000Y-88900000D01*
X158750000Y-88900000D02*
X158750000Y-85022000D01*
%TO.N,VCC*%
X143510000Y-80010000D02*
X143510000Y-80518000D01*
X143510000Y-80010000D02*
X143510000Y-76200000D01*
X143510000Y-76200000D02*
X142240000Y-74930000D01*
X142240000Y-74930000D02*
X135890000Y-74930000D01*
X135890000Y-74930000D02*
X134620000Y-73660000D01*
X134620000Y-73660000D02*
X134620000Y-64770000D01*
X147955000Y-88900000D02*
X147955000Y-85725000D01*
X147955000Y-85725000D02*
X147320000Y-85090000D01*
X147320000Y-85090000D02*
X144780000Y-85090000D01*
X143510000Y-83820000D02*
X143510000Y-80010000D01*
X144780000Y-85090000D02*
X143510000Y-83820000D01*
%TO.N,/9VDC*%
X161290000Y-92642000D02*
X161290000Y-99060000D01*
X152468000Y-83820000D02*
X153670000Y-85022000D01*
X148590000Y-82550000D02*
X149860000Y-83820000D01*
X149860000Y-83820000D02*
X152468000Y-83820000D01*
X148590000Y-80010000D02*
X148590000Y-82550000D01*
X153670000Y-85022000D02*
X153670000Y-83820000D01*
X153670000Y-83820000D02*
X154940000Y-82550000D01*
X154940000Y-82550000D02*
X160020000Y-82550000D01*
X160020000Y-82550000D02*
X161290000Y-81280000D01*
X161290000Y-81280000D02*
X161290000Y-78740000D01*
X161290000Y-92642000D02*
X163762000Y-92642000D01*
X163762000Y-92642000D02*
X164964000Y-91440000D01*
X164964000Y-91440000D02*
X164964000Y-83956000D01*
X164964000Y-83956000D02*
X164964000Y-83684000D01*
X164964000Y-83684000D02*
X163830000Y-82550000D01*
X163830000Y-82550000D02*
X160020000Y-82550000D01*
%TO.N,Net-(D2-Pad1)*%
X168910000Y-71120000D02*
X161290000Y-71120000D01*
X175260000Y-93980000D02*
X171450000Y-93980000D01*
X171450000Y-93980000D02*
X170180000Y-92710000D01*
X170180000Y-92710000D02*
X170180000Y-72390000D01*
X170180000Y-72390000D02*
X168910000Y-71120000D01*
%TO.N,Net-(D1-Pad1)*%
X151130000Y-63500000D02*
X151130000Y-71120000D01*
X151130000Y-71120000D02*
X151130000Y-73660000D01*
X153670000Y-76200000D02*
X153670000Y-78740000D01*
X151130000Y-73660000D02*
X153670000Y-76200000D01*
%TO.N,Net-(D1-Pad2)*%
X175260000Y-64770000D02*
X175260000Y-83980000D01*
X173990000Y-63500000D02*
X175260000Y-64770000D01*
X161290000Y-63500000D02*
X173990000Y-63500000D01*
%TO.N,Net-(Q1-Pad2)*%
X153670000Y-114300000D02*
X153670000Y-106680000D01*
%TO.N,Net-(R3-Pad2)*%
X158750000Y-101600000D02*
X158750000Y-92642000D01*
X161290000Y-104140000D02*
X158750000Y-101600000D01*
X161290000Y-106680000D02*
X161290000Y-104140000D01*
D26*
%TO.N,Net-(J1-Pad1)*%
X119380000Y-107950000D02*
X118110000Y-106680000D01*
X139700000Y-115570000D02*
X139700000Y-109220000D01*
X138430000Y-107950000D02*
X128270000Y-107950000D01*
X128270000Y-107950000D02*
X119380000Y-107950000D01*
X118110000Y-106680000D02*
X118110000Y-99060000D01*
X139700000Y-109220000D02*
X138430000Y-107950000D01*
D25*
%TO.N,Net-(Q1-Pad2)*%
X140970000Y-91440000D02*
X129540000Y-91440000D01*
X142240000Y-105410000D02*
X142240000Y-92710000D01*
X142240000Y-92710000D02*
X140970000Y-91440000D01*
X143510000Y-106680000D02*
X142240000Y-105410000D01*
X153670000Y-106680000D02*
X143510000Y-106680000D01*
D27*
%TO.N,Net-(J1-Pad1)*%
X111760000Y-97790000D02*
X113030000Y-99060000D01*
X113030000Y-99060000D02*
X118110000Y-99060000D01*
X111760000Y-90170000D02*
X111760000Y-97790000D01*
X113030000Y-88900000D02*
X111760000Y-90170000D01*
X118110000Y-88900000D02*
X113030000Y-88900000D01*
X118110000Y-88900000D02*
X121920000Y-88900000D01*
X123190000Y-90170000D02*
X123190000Y-96520000D01*
X121920000Y-97790000D02*
X118110000Y-97790000D01*
X123190000Y-96520000D02*
X121920000Y-97790000D01*
X121920000Y-88900000D02*
X123190000Y-90170000D01*
D26*
X118110000Y-97790000D02*
X118110000Y-99060000D01*
%TD*%
D25*
%TO.N,GND*%
X195186300Y-127876300D02*
X107073700Y-127876300D01*
X107073700Y-120437665D01*
X112144131Y-120437665D01*
X112144131Y-120862335D01*
X112226980Y-121278844D01*
X112389494Y-121671187D01*
X112625427Y-122024286D01*
X112925714Y-122324573D01*
X113278813Y-122560506D01*
X113671156Y-122723020D01*
X114087665Y-122805869D01*
X114512335Y-122805869D01*
X114928844Y-122723020D01*
X115321187Y-122560506D01*
X115674286Y-122324573D01*
X115974573Y-122024286D01*
X116210506Y-121671187D01*
X116373020Y-121278844D01*
X116455869Y-120862335D01*
X116455869Y-120437665D01*
X185804131Y-120437665D01*
X185804131Y-120862335D01*
X185886980Y-121278844D01*
X186049494Y-121671187D01*
X186285427Y-122024286D01*
X186585714Y-122324573D01*
X186938813Y-122560506D01*
X187331156Y-122723020D01*
X187747665Y-122805869D01*
X188172335Y-122805869D01*
X188588844Y-122723020D01*
X188981187Y-122560506D01*
X189334286Y-122324573D01*
X189634573Y-122024286D01*
X189870506Y-121671187D01*
X190033020Y-121278844D01*
X190115869Y-120862335D01*
X190115869Y-120437665D01*
X190033020Y-120021156D01*
X189870506Y-119628813D01*
X189634573Y-119275714D01*
X189334286Y-118975427D01*
X188981187Y-118739494D01*
X188588844Y-118576980D01*
X188172335Y-118494131D01*
X187747665Y-118494131D01*
X187331156Y-118576980D01*
X186938813Y-118739494D01*
X186585714Y-118975427D01*
X186285427Y-119275714D01*
X186049494Y-119628813D01*
X185886980Y-120021156D01*
X185804131Y-120437665D01*
X116455869Y-120437665D01*
X116373020Y-120021156D01*
X116210506Y-119628813D01*
X115974573Y-119275714D01*
X115674286Y-118975427D01*
X115321187Y-118739494D01*
X114928844Y-118576980D01*
X114512335Y-118494131D01*
X114087665Y-118494131D01*
X113671156Y-118576980D01*
X113278813Y-118739494D01*
X112925714Y-118975427D01*
X112625427Y-119275714D01*
X112389494Y-119628813D01*
X112226980Y-120021156D01*
X112144131Y-120437665D01*
X107073700Y-120437665D01*
X107073700Y-115404436D01*
X132939000Y-115404436D01*
X132939000Y-115735564D01*
X133003600Y-116060330D01*
X133130317Y-116366252D01*
X133314282Y-116641575D01*
X133548425Y-116875718D01*
X133823748Y-117059683D01*
X134129670Y-117186400D01*
X134454436Y-117251000D01*
X134785564Y-117251000D01*
X135110330Y-117186400D01*
X135416252Y-117059683D01*
X135691575Y-116875718D01*
X135925718Y-116641575D01*
X136109683Y-116366252D01*
X136236400Y-116060330D01*
X136301000Y-115735564D01*
X136301000Y-115404436D01*
X136236400Y-115079670D01*
X136109683Y-114773748D01*
X135925718Y-114498425D01*
X135691575Y-114264282D01*
X135416252Y-114080317D01*
X135110330Y-113953600D01*
X134785564Y-113889000D01*
X134454436Y-113889000D01*
X134129670Y-113953600D01*
X133823748Y-114080317D01*
X133548425Y-114264282D01*
X133314282Y-114498425D01*
X133130317Y-114773748D01*
X133003600Y-115079670D01*
X132939000Y-115404436D01*
X107073700Y-115404436D01*
X107073700Y-90170000D01*
X110611471Y-90170000D01*
X110617000Y-90226139D01*
X110617001Y-97733851D01*
X110611471Y-97790000D01*
X110633539Y-98014067D01*
X110675062Y-98150948D01*
X110698898Y-98229523D01*
X110805033Y-98428089D01*
X110835070Y-98464689D01*
X110894011Y-98536508D01*
X110947868Y-98602133D01*
X110991478Y-98637923D01*
X112182077Y-99828523D01*
X112217867Y-99872133D01*
X112391911Y-100014968D01*
X112590477Y-100121103D01*
X112740574Y-100166635D01*
X112805932Y-100186461D01*
X112828600Y-100188694D01*
X112973854Y-100203000D01*
X112973860Y-100203000D01*
X113029999Y-100208529D01*
X113086138Y-100203000D01*
X116205001Y-100203000D01*
X116205000Y-106586420D01*
X116195783Y-106680000D01*
X116205000Y-106773580D01*
X116205000Y-106773581D01*
X116232564Y-107053444D01*
X116341494Y-107412538D01*
X116518387Y-107743482D01*
X116756444Y-108033556D01*
X116829145Y-108093220D01*
X117966784Y-109230860D01*
X118026444Y-109303556D01*
X118218319Y-109461023D01*
X118316517Y-109541613D01*
X118493410Y-109636164D01*
X118647461Y-109718506D01*
X119006555Y-109827436D01*
X119286418Y-109855000D01*
X119286419Y-109855000D01*
X119379999Y-109864217D01*
X119473579Y-109855000D01*
X137640925Y-109855000D01*
X137795001Y-110009076D01*
X137795000Y-115663581D01*
X137822564Y-115943444D01*
X137931494Y-116302538D01*
X138017157Y-116462802D01*
X138017157Y-116870000D01*
X138024513Y-116944689D01*
X138046299Y-117016508D01*
X138081678Y-117082696D01*
X138129289Y-117140711D01*
X138187304Y-117188322D01*
X138253492Y-117223701D01*
X138325311Y-117245487D01*
X138400000Y-117252843D01*
X138807197Y-117252843D01*
X138967461Y-117338506D01*
X139326555Y-117447436D01*
X139700000Y-117484217D01*
X140073444Y-117447436D01*
X140432538Y-117338506D01*
X140592802Y-117252843D01*
X141000000Y-117252843D01*
X141074689Y-117245487D01*
X141146508Y-117223701D01*
X141212696Y-117188322D01*
X141270711Y-117140711D01*
X141318322Y-117082696D01*
X141353701Y-117016508D01*
X141375487Y-116944689D01*
X141382843Y-116870000D01*
X141382843Y-116462803D01*
X141468506Y-116302539D01*
X141577436Y-115943445D01*
X141605000Y-115663582D01*
X141605000Y-109313579D01*
X141614217Y-109219999D01*
X141605000Y-109126418D01*
X141577436Y-108846555D01*
X141468506Y-108487461D01*
X141386164Y-108333410D01*
X141291613Y-108156517D01*
X141190701Y-108033556D01*
X141053556Y-107866444D01*
X140980860Y-107806784D01*
X139843220Y-106669145D01*
X139783556Y-106596444D01*
X139493482Y-106358387D01*
X139162539Y-106181494D01*
X138803445Y-106072564D01*
X138523582Y-106045000D01*
X138523580Y-106045000D01*
X138430000Y-106035783D01*
X138336420Y-106045000D01*
X120169076Y-106045000D01*
X120015000Y-105890925D01*
X120015000Y-98933000D01*
X121863861Y-98933000D01*
X121920000Y-98938529D01*
X121976139Y-98933000D01*
X121976146Y-98933000D01*
X122144067Y-98916461D01*
X122359523Y-98851103D01*
X122558089Y-98744968D01*
X122732133Y-98602133D01*
X122767927Y-98558518D01*
X123958523Y-97367923D01*
X124002133Y-97332133D01*
X124144968Y-97158089D01*
X124251103Y-96959523D01*
X124316461Y-96744067D01*
X124333000Y-96576146D01*
X124333000Y-96576140D01*
X124338529Y-96520001D01*
X124333000Y-96463862D01*
X124333000Y-91364950D01*
X128778000Y-91364950D01*
X128778000Y-91515050D01*
X128807283Y-91662267D01*
X128864724Y-91800942D01*
X128948116Y-91925747D01*
X129054253Y-92031884D01*
X129179058Y-92115276D01*
X129317733Y-92172717D01*
X129464950Y-92202000D01*
X129615050Y-92202000D01*
X129762267Y-92172717D01*
X129900942Y-92115276D01*
X130025747Y-92031884D01*
X130109631Y-91948000D01*
X140759580Y-91948000D01*
X141732001Y-92920422D01*
X141732000Y-105385056D01*
X141729543Y-105410000D01*
X141732000Y-105434944D01*
X141732000Y-105434946D01*
X141739351Y-105509584D01*
X141768399Y-105605342D01*
X141815571Y-105693595D01*
X141879052Y-105770948D01*
X141898435Y-105786855D01*
X143133150Y-107021571D01*
X143149052Y-107040948D01*
X143168429Y-107056850D01*
X143226404Y-107104429D01*
X143314655Y-107151600D01*
X143314657Y-107151601D01*
X143410415Y-107180649D01*
X143485053Y-107188000D01*
X143485055Y-107188000D01*
X143509999Y-107190457D01*
X143534943Y-107188000D01*
X152602116Y-107188000D01*
X152623412Y-107239413D01*
X152752658Y-107432843D01*
X152917157Y-107597342D01*
X153110587Y-107726588D01*
X153162001Y-107747884D01*
X153162000Y-113232116D01*
X153110587Y-113253412D01*
X152917157Y-113382658D01*
X152752658Y-113547157D01*
X152623412Y-113740587D01*
X152534386Y-113955515D01*
X152489000Y-114183682D01*
X152489000Y-114416318D01*
X152534386Y-114644485D01*
X152623412Y-114859413D01*
X152752658Y-115052843D01*
X152917157Y-115217342D01*
X153110587Y-115346588D01*
X153325515Y-115435614D01*
X153553682Y-115481000D01*
X153786318Y-115481000D01*
X154014485Y-115435614D01*
X154229413Y-115346588D01*
X154422843Y-115217342D01*
X154587342Y-115052843D01*
X154716588Y-114859413D01*
X154803727Y-114649039D01*
X159898096Y-114649039D01*
X159938754Y-114783087D01*
X160058963Y-115037420D01*
X160226481Y-115263414D01*
X160434869Y-115452385D01*
X160676119Y-115597070D01*
X160940960Y-115691909D01*
X161163000Y-115570624D01*
X161163000Y-114427000D01*
X161417000Y-114427000D01*
X161417000Y-115570624D01*
X161639040Y-115691909D01*
X161903881Y-115597070D01*
X162145131Y-115452385D01*
X162353519Y-115263414D01*
X162521037Y-115037420D01*
X162641246Y-114783087D01*
X162681904Y-114649039D01*
X162559915Y-114427000D01*
X161417000Y-114427000D01*
X161163000Y-114427000D01*
X160020085Y-114427000D01*
X159898096Y-114649039D01*
X154803727Y-114649039D01*
X154805614Y-114644485D01*
X154851000Y-114416318D01*
X154851000Y-114183682D01*
X154805614Y-113955515D01*
X154803728Y-113950961D01*
X159898096Y-113950961D01*
X160020085Y-114173000D01*
X161163000Y-114173000D01*
X161163000Y-113029376D01*
X161417000Y-113029376D01*
X161417000Y-114173000D01*
X162559915Y-114173000D01*
X162681904Y-113950961D01*
X162641246Y-113816913D01*
X162521037Y-113562580D01*
X162353519Y-113336586D01*
X162145131Y-113147615D01*
X161903881Y-113002930D01*
X161639040Y-112908091D01*
X161417000Y-113029376D01*
X161163000Y-113029376D01*
X160940960Y-112908091D01*
X160676119Y-113002930D01*
X160434869Y-113147615D01*
X160226481Y-113336586D01*
X160058963Y-113562580D01*
X159938754Y-113816913D01*
X159898096Y-113950961D01*
X154803728Y-113950961D01*
X154716588Y-113740587D01*
X154587342Y-113547157D01*
X154422843Y-113382658D01*
X154229413Y-113253412D01*
X154178000Y-113232116D01*
X154178000Y-107747884D01*
X154229413Y-107726588D01*
X154422843Y-107597342D01*
X154587342Y-107432843D01*
X154716588Y-107239413D01*
X154805614Y-107024485D01*
X154851000Y-106796318D01*
X154851000Y-106563682D01*
X154805614Y-106335515D01*
X154716588Y-106120587D01*
X154587342Y-105927157D01*
X154422843Y-105762658D01*
X154229413Y-105633412D01*
X154014485Y-105544386D01*
X153786318Y-105499000D01*
X153553682Y-105499000D01*
X153325515Y-105544386D01*
X153110587Y-105633412D01*
X152917157Y-105762658D01*
X152752658Y-105927157D01*
X152623412Y-106120587D01*
X152602116Y-106172000D01*
X143720421Y-106172000D01*
X142748000Y-105199580D01*
X142748000Y-100052702D01*
X155476903Y-100052702D01*
X155548486Y-100296671D01*
X155803996Y-100417571D01*
X156078184Y-100486300D01*
X156360512Y-100500217D01*
X156640130Y-100458787D01*
X156906292Y-100363603D01*
X157031514Y-100296671D01*
X157103097Y-100052702D01*
X156290000Y-99239605D01*
X155476903Y-100052702D01*
X142748000Y-100052702D01*
X142748000Y-99130512D01*
X154849783Y-99130512D01*
X154891213Y-99410130D01*
X154986397Y-99676292D01*
X155053329Y-99801514D01*
X155297298Y-99873097D01*
X156110395Y-99060000D01*
X156469605Y-99060000D01*
X157282702Y-99873097D01*
X157526671Y-99801514D01*
X157647571Y-99546004D01*
X157716300Y-99271816D01*
X157730217Y-98989488D01*
X157688787Y-98709870D01*
X157593603Y-98443708D01*
X157526671Y-98318486D01*
X157282702Y-98246903D01*
X156469605Y-99060000D01*
X156110395Y-99060000D01*
X155297298Y-98246903D01*
X155053329Y-98318486D01*
X154932429Y-98573996D01*
X154863700Y-98848184D01*
X154849783Y-99130512D01*
X142748000Y-99130512D01*
X142748000Y-97190000D01*
X145067157Y-97190000D01*
X145067157Y-98390000D01*
X145074513Y-98464689D01*
X145096299Y-98536508D01*
X145131678Y-98602696D01*
X145179289Y-98660711D01*
X145237304Y-98708322D01*
X145303492Y-98743701D01*
X145375311Y-98765487D01*
X145450000Y-98772843D01*
X146650000Y-98772843D01*
X146724689Y-98765487D01*
X146796508Y-98743701D01*
X146862696Y-98708322D01*
X146920711Y-98660711D01*
X146937901Y-98639764D01*
X147379841Y-98639764D01*
X147427148Y-98863348D01*
X147648516Y-98964237D01*
X147885313Y-99020000D01*
X148128438Y-99028495D01*
X148368549Y-98989395D01*
X148596418Y-98904202D01*
X148672852Y-98863348D01*
X148720159Y-98639764D01*
X148050000Y-97969605D01*
X147379841Y-98639764D01*
X146937901Y-98639764D01*
X146968322Y-98602696D01*
X147003701Y-98536508D01*
X147025487Y-98464689D01*
X147029491Y-98424032D01*
X147200236Y-98460159D01*
X147870395Y-97790000D01*
X148229605Y-97790000D01*
X148899764Y-98460159D01*
X149123348Y-98412852D01*
X149224237Y-98191484D01*
X149253481Y-98067298D01*
X155476903Y-98067298D01*
X156290000Y-98880395D01*
X157103097Y-98067298D01*
X157031514Y-97823329D01*
X156776004Y-97702429D01*
X156501816Y-97633700D01*
X156219488Y-97619783D01*
X155939870Y-97661213D01*
X155673708Y-97756397D01*
X155548486Y-97823329D01*
X155476903Y-98067298D01*
X149253481Y-98067298D01*
X149280000Y-97954687D01*
X149288495Y-97711562D01*
X149249395Y-97471451D01*
X149164202Y-97243582D01*
X149123348Y-97167148D01*
X148899764Y-97119841D01*
X148229605Y-97790000D01*
X147870395Y-97790000D01*
X147200236Y-97119841D01*
X147029491Y-97155968D01*
X147025487Y-97115311D01*
X147003701Y-97043492D01*
X146968322Y-96977304D01*
X146937902Y-96940236D01*
X147379841Y-96940236D01*
X148050000Y-97610395D01*
X148720159Y-96940236D01*
X148672852Y-96716652D01*
X148451484Y-96615763D01*
X148214687Y-96560000D01*
X147971562Y-96551505D01*
X147731451Y-96590605D01*
X147503582Y-96675798D01*
X147427148Y-96716652D01*
X147379841Y-96940236D01*
X146937902Y-96940236D01*
X146920711Y-96919289D01*
X146862696Y-96871678D01*
X146843176Y-96861244D01*
X147946421Y-95758000D01*
X154915056Y-95758000D01*
X154940000Y-95760457D01*
X154964944Y-95758000D01*
X154964947Y-95758000D01*
X155039585Y-95750649D01*
X155135343Y-95721601D01*
X155223595Y-95674429D01*
X155300948Y-95610948D01*
X155316855Y-95591565D01*
X156551571Y-94356850D01*
X156570948Y-94340948D01*
X156589624Y-94318190D01*
X156634429Y-94263596D01*
X156681600Y-94175345D01*
X156694518Y-94132760D01*
X156710649Y-94079585D01*
X156718000Y-94004947D01*
X156718000Y-94004945D01*
X156720457Y-93980001D01*
X156718000Y-93955057D01*
X156718000Y-93668753D01*
X156751413Y-93654913D01*
X156938620Y-93529826D01*
X157097826Y-93370620D01*
X157222913Y-93183413D01*
X157309075Y-92975401D01*
X157353000Y-92754576D01*
X157353000Y-92529424D01*
X157607000Y-92529424D01*
X157607000Y-92754576D01*
X157650925Y-92975401D01*
X157737087Y-93183413D01*
X157862174Y-93370620D01*
X158021380Y-93529826D01*
X158208587Y-93654913D01*
X158242001Y-93668754D01*
X158242000Y-101575056D01*
X158239543Y-101600000D01*
X158242000Y-101624944D01*
X158242000Y-101624946D01*
X158249351Y-101699584D01*
X158278399Y-101795342D01*
X158325571Y-101883595D01*
X158389052Y-101960948D01*
X158408435Y-101976855D01*
X160782001Y-104350422D01*
X160782000Y-105612116D01*
X160730587Y-105633412D01*
X160537157Y-105762658D01*
X160372658Y-105927157D01*
X160243412Y-106120587D01*
X160154386Y-106335515D01*
X160109000Y-106563682D01*
X160109000Y-106796318D01*
X160154386Y-107024485D01*
X160243412Y-107239413D01*
X160372658Y-107432843D01*
X160537157Y-107597342D01*
X160730587Y-107726588D01*
X160945515Y-107815614D01*
X161173682Y-107861000D01*
X161406318Y-107861000D01*
X161634485Y-107815614D01*
X161849413Y-107726588D01*
X162042843Y-107597342D01*
X162207342Y-107432843D01*
X162336588Y-107239413D01*
X162425614Y-107024485D01*
X162471000Y-106796318D01*
X162471000Y-106563682D01*
X162425614Y-106335515D01*
X162336588Y-106120587D01*
X162207342Y-105927157D01*
X162042843Y-105762658D01*
X161849413Y-105633412D01*
X161798000Y-105612116D01*
X161798000Y-104164943D01*
X161800457Y-104139999D01*
X161798000Y-104115053D01*
X161790649Y-104040415D01*
X161761601Y-103944657D01*
X161761600Y-103944655D01*
X161714429Y-103856404D01*
X161666850Y-103798429D01*
X161650948Y-103779052D01*
X161631571Y-103763150D01*
X159258000Y-101389580D01*
X159258000Y-93668753D01*
X159291413Y-93654913D01*
X159478620Y-93529826D01*
X159637826Y-93370620D01*
X159762913Y-93183413D01*
X159849075Y-92975401D01*
X159893000Y-92754576D01*
X159893000Y-92529424D01*
X159849075Y-92308599D01*
X159762913Y-92100587D01*
X159637826Y-91913380D01*
X159478620Y-91754174D01*
X159291413Y-91629087D01*
X159083401Y-91542925D01*
X158862576Y-91499000D01*
X158637424Y-91499000D01*
X158416599Y-91542925D01*
X158208587Y-91629087D01*
X158021380Y-91754174D01*
X157862174Y-91913380D01*
X157737087Y-92100587D01*
X157650925Y-92308599D01*
X157607000Y-92529424D01*
X157353000Y-92529424D01*
X157309075Y-92308599D01*
X157222913Y-92100587D01*
X157097826Y-91913380D01*
X156938620Y-91754174D01*
X156751413Y-91629087D01*
X156742871Y-91625549D01*
X159091571Y-89276850D01*
X159110948Y-89260948D01*
X159129624Y-89238190D01*
X159174429Y-89183596D01*
X159221600Y-89095345D01*
X159230900Y-89064687D01*
X159250649Y-88999585D01*
X159258000Y-88924947D01*
X159258000Y-88924945D01*
X159260457Y-88900001D01*
X159258000Y-88875057D01*
X159258000Y-86048753D01*
X159291413Y-86034913D01*
X159478620Y-85909826D01*
X159637826Y-85750620D01*
X159762913Y-85563413D01*
X159849075Y-85355401D01*
X159893000Y-85134576D01*
X159893000Y-84909424D01*
X160147000Y-84909424D01*
X160147000Y-85134576D01*
X160190925Y-85355401D01*
X160277087Y-85563413D01*
X160402174Y-85750620D01*
X160561380Y-85909826D01*
X160748587Y-86034913D01*
X160956599Y-86121075D01*
X161177424Y-86165000D01*
X161402576Y-86165000D01*
X161623401Y-86121075D01*
X161831413Y-86034913D01*
X162018620Y-85909826D01*
X162177826Y-85750620D01*
X162302913Y-85563413D01*
X162389075Y-85355401D01*
X162433000Y-85134576D01*
X162433000Y-84909424D01*
X162389075Y-84688599D01*
X162302913Y-84480587D01*
X162177826Y-84293380D01*
X162018620Y-84134174D01*
X161831413Y-84009087D01*
X161623401Y-83922925D01*
X161402576Y-83879000D01*
X161177424Y-83879000D01*
X160956599Y-83922925D01*
X160748587Y-84009087D01*
X160561380Y-84134174D01*
X160402174Y-84293380D01*
X160277087Y-84480587D01*
X160190925Y-84688599D01*
X160147000Y-84909424D01*
X159893000Y-84909424D01*
X159849075Y-84688599D01*
X159762913Y-84480587D01*
X159637826Y-84293380D01*
X159478620Y-84134174D01*
X159291413Y-84009087D01*
X159083401Y-83922925D01*
X158862576Y-83879000D01*
X158637424Y-83879000D01*
X158416599Y-83922925D01*
X158208587Y-84009087D01*
X158021380Y-84134174D01*
X157862174Y-84293380D01*
X157737087Y-84480587D01*
X157650925Y-84688599D01*
X157607000Y-84909424D01*
X157607000Y-85134576D01*
X157650925Y-85355401D01*
X157737087Y-85563413D01*
X157862174Y-85750620D01*
X158021380Y-85909826D01*
X158208587Y-86034913D01*
X158242001Y-86048754D01*
X158242000Y-88689579D01*
X155868430Y-91063150D01*
X155849053Y-91079052D01*
X155833151Y-91098429D01*
X155833150Y-91098430D01*
X155785571Y-91156405D01*
X155752791Y-91217733D01*
X155738400Y-91244657D01*
X155722686Y-91296461D01*
X155709352Y-91340416D01*
X155699543Y-91440000D01*
X155702001Y-91464954D01*
X155702001Y-91615246D01*
X155668587Y-91629087D01*
X155481380Y-91754174D01*
X155322174Y-91913380D01*
X155197087Y-92100587D01*
X155110925Y-92308599D01*
X155067000Y-92529424D01*
X155067000Y-92537386D01*
X155030922Y-92297867D01*
X154937636Y-92038977D01*
X154875656Y-91923020D01*
X154635565Y-91856040D01*
X153849605Y-92642000D01*
X154635565Y-93427960D01*
X154875656Y-93360980D01*
X154992756Y-93111952D01*
X155059023Y-92844865D01*
X155067000Y-92674714D01*
X155067000Y-92754576D01*
X155110925Y-92975401D01*
X155197087Y-93183413D01*
X155322174Y-93370620D01*
X155481380Y-93529826D01*
X155668587Y-93654913D01*
X155702000Y-93668753D01*
X155702000Y-93769579D01*
X154729580Y-94742000D01*
X147760943Y-94742000D01*
X147735999Y-94739543D01*
X147711055Y-94742000D01*
X147711053Y-94742000D01*
X147636415Y-94749351D01*
X147540657Y-94778399D01*
X147499576Y-94800357D01*
X147452404Y-94825571D01*
X147397810Y-94870376D01*
X147375052Y-94889052D01*
X147359150Y-94908429D01*
X145708430Y-96559150D01*
X145689053Y-96575052D01*
X145673151Y-96594429D01*
X145673150Y-96594430D01*
X145625571Y-96652405D01*
X145584686Y-96728897D01*
X145578400Y-96740657D01*
X145558227Y-96807157D01*
X145450000Y-96807157D01*
X145375311Y-96814513D01*
X145303492Y-96836299D01*
X145237304Y-96871678D01*
X145179289Y-96919289D01*
X145131678Y-96977304D01*
X145096299Y-97043492D01*
X145074513Y-97115311D01*
X145067157Y-97190000D01*
X142748000Y-97190000D01*
X142748000Y-93607565D01*
X152884040Y-93607565D01*
X152951020Y-93847656D01*
X153200048Y-93964756D01*
X153467135Y-94031023D01*
X153742017Y-94043910D01*
X154014133Y-94002922D01*
X154273023Y-93909636D01*
X154388980Y-93847656D01*
X154455960Y-93607565D01*
X153670000Y-92821605D01*
X152884040Y-93607565D01*
X142748000Y-93607565D01*
X142748000Y-92734943D01*
X142750061Y-92714017D01*
X152268090Y-92714017D01*
X152309078Y-92986133D01*
X152402364Y-93245023D01*
X152464344Y-93360980D01*
X152704435Y-93427960D01*
X153490395Y-92642000D01*
X152704435Y-91856040D01*
X152464344Y-91923020D01*
X152347244Y-92172048D01*
X152280977Y-92439135D01*
X152268090Y-92714017D01*
X142750061Y-92714017D01*
X142750457Y-92709999D01*
X142747301Y-92677954D01*
X142740649Y-92610415D01*
X142711601Y-92514657D01*
X142697675Y-92488604D01*
X142664429Y-92426404D01*
X142616850Y-92368429D01*
X142600948Y-92349052D01*
X142581571Y-92333150D01*
X141924856Y-91676435D01*
X152884040Y-91676435D01*
X153670000Y-92462395D01*
X154455960Y-91676435D01*
X154388980Y-91436344D01*
X154139952Y-91319244D01*
X153872865Y-91252977D01*
X153597983Y-91240090D01*
X153325867Y-91281078D01*
X153066977Y-91374364D01*
X152951020Y-91436344D01*
X152884040Y-91676435D01*
X141924856Y-91676435D01*
X141346855Y-91098435D01*
X141330948Y-91079052D01*
X141253595Y-91015571D01*
X141165343Y-90968399D01*
X141069585Y-90939351D01*
X140994947Y-90932000D01*
X140994944Y-90932000D01*
X140970000Y-90929543D01*
X140945056Y-90932000D01*
X130109631Y-90932000D01*
X130025747Y-90848116D01*
X129900942Y-90764724D01*
X129762267Y-90707283D01*
X129615050Y-90678000D01*
X129464950Y-90678000D01*
X129317733Y-90707283D01*
X129179058Y-90764724D01*
X129054253Y-90848116D01*
X128948116Y-90954253D01*
X128864724Y-91079058D01*
X128807283Y-91217733D01*
X128778000Y-91364950D01*
X124333000Y-91364950D01*
X124333000Y-90226138D01*
X124338529Y-90169999D01*
X124333000Y-90113860D01*
X124333000Y-90113854D01*
X124316461Y-89945933D01*
X124256954Y-89749764D01*
X145284841Y-89749764D01*
X145332148Y-89973348D01*
X145553516Y-90074237D01*
X145790313Y-90130000D01*
X146033438Y-90138495D01*
X146273549Y-90099395D01*
X146501418Y-90014202D01*
X146577852Y-89973348D01*
X146625159Y-89749764D01*
X145955000Y-89079605D01*
X145284841Y-89749764D01*
X124256954Y-89749764D01*
X124251103Y-89730477D01*
X124144968Y-89531911D01*
X124002133Y-89357867D01*
X123958524Y-89322078D01*
X123614884Y-88978438D01*
X144716505Y-88978438D01*
X144755605Y-89218549D01*
X144840798Y-89446418D01*
X144881652Y-89522852D01*
X145105236Y-89570159D01*
X145775395Y-88900000D01*
X145105236Y-88229841D01*
X144881652Y-88277148D01*
X144780763Y-88498516D01*
X144725000Y-88735313D01*
X144716505Y-88978438D01*
X123614884Y-88978438D01*
X122767927Y-88131482D01*
X122732133Y-88087867D01*
X122686280Y-88050236D01*
X145284841Y-88050236D01*
X145955000Y-88720395D01*
X146625159Y-88050236D01*
X146577852Y-87826652D01*
X146356484Y-87725763D01*
X146119687Y-87670000D01*
X145876562Y-87661505D01*
X145636451Y-87700605D01*
X145408582Y-87785798D01*
X145332148Y-87826652D01*
X145284841Y-88050236D01*
X122686280Y-88050236D01*
X122558089Y-87945032D01*
X122359523Y-87838897D01*
X122144067Y-87773539D01*
X121976146Y-87757000D01*
X121976139Y-87757000D01*
X121920000Y-87751471D01*
X121863861Y-87757000D01*
X119440186Y-87757000D01*
X119428322Y-87734804D01*
X119380711Y-87676789D01*
X119322696Y-87629178D01*
X119256508Y-87593799D01*
X119184689Y-87572013D01*
X119170702Y-87570635D01*
X119291315Y-87469437D01*
X119485969Y-87226923D01*
X119629571Y-86951094D01*
X119700563Y-86732980D01*
X119580594Y-86487000D01*
X118237000Y-86487000D01*
X118237000Y-86507000D01*
X117983000Y-86507000D01*
X117983000Y-86487000D01*
X116639406Y-86487000D01*
X116519437Y-86732980D01*
X116590429Y-86951094D01*
X116734031Y-87226923D01*
X116928685Y-87469437D01*
X117049298Y-87570635D01*
X117035311Y-87572013D01*
X116963492Y-87593799D01*
X116897304Y-87629178D01*
X116839289Y-87676789D01*
X116791678Y-87734804D01*
X116779814Y-87757000D01*
X113086138Y-87757000D01*
X113029999Y-87751471D01*
X112973860Y-87757000D01*
X112973854Y-87757000D01*
X112828600Y-87771306D01*
X112805932Y-87773539D01*
X112740574Y-87793365D01*
X112590477Y-87838897D01*
X112391911Y-87945032D01*
X112217867Y-88087867D01*
X112182077Y-88131477D01*
X110991482Y-89322073D01*
X110947867Y-89357867D01*
X110805032Y-89531912D01*
X110698897Y-89730478D01*
X110672250Y-89818322D01*
X110633540Y-89945932D01*
X110633539Y-89945934D01*
X110617000Y-90113855D01*
X110617000Y-90113861D01*
X110611471Y-90170000D01*
X107073700Y-90170000D01*
X107073700Y-85987020D01*
X116519437Y-85987020D01*
X116639406Y-86233000D01*
X117983000Y-86233000D01*
X117983000Y-84934430D01*
X118237000Y-84934430D01*
X118237000Y-86233000D01*
X119580594Y-86233000D01*
X119700563Y-85987020D01*
X119629571Y-85768906D01*
X119485969Y-85493077D01*
X119291315Y-85250563D01*
X119053089Y-85050684D01*
X118780446Y-84901121D01*
X118483863Y-84807622D01*
X118237000Y-84934430D01*
X117983000Y-84934430D01*
X117736137Y-84807622D01*
X117439554Y-84901121D01*
X117166911Y-85050684D01*
X116928685Y-85250563D01*
X116734031Y-85493077D01*
X116590429Y-85768906D01*
X116519437Y-85987020D01*
X107073700Y-85987020D01*
X107073700Y-63470000D01*
X132937157Y-63470000D01*
X132937157Y-66070000D01*
X132944513Y-66144689D01*
X132966299Y-66216508D01*
X133001678Y-66282696D01*
X133049289Y-66340711D01*
X133107304Y-66388322D01*
X133173492Y-66423701D01*
X133245311Y-66445487D01*
X133320000Y-66452843D01*
X134112001Y-66452843D01*
X134112000Y-73635056D01*
X134109543Y-73660000D01*
X134112000Y-73684944D01*
X134112000Y-73684946D01*
X134119351Y-73759584D01*
X134148399Y-73855342D01*
X134195571Y-73943595D01*
X134259052Y-74020948D01*
X134278435Y-74036855D01*
X135513149Y-75271570D01*
X135529052Y-75290948D01*
X135548429Y-75306850D01*
X135606404Y-75354429D01*
X135694655Y-75401600D01*
X135694657Y-75401601D01*
X135790415Y-75430649D01*
X135865053Y-75438000D01*
X135865055Y-75438000D01*
X135889999Y-75440457D01*
X135914943Y-75438000D01*
X142029580Y-75438000D01*
X143002001Y-76410422D01*
X143002000Y-78627157D01*
X142557500Y-78627157D01*
X142482811Y-78634513D01*
X142410992Y-78656299D01*
X142344804Y-78691678D01*
X142286789Y-78739289D01*
X142239178Y-78797304D01*
X142203799Y-78863492D01*
X142182013Y-78935311D01*
X142174657Y-79010000D01*
X142174657Y-81010000D01*
X142182013Y-81084689D01*
X142203799Y-81156508D01*
X142239178Y-81222696D01*
X142286789Y-81280711D01*
X142344804Y-81328322D01*
X142410992Y-81363701D01*
X142482811Y-81385487D01*
X142557500Y-81392843D01*
X143002001Y-81392843D01*
X143002000Y-83795053D01*
X142999543Y-83820000D01*
X143002000Y-83844944D01*
X143002000Y-83844946D01*
X143009351Y-83919584D01*
X143038399Y-84015342D01*
X143085571Y-84103595D01*
X143149052Y-84180948D01*
X143168435Y-84196855D01*
X144403149Y-85431570D01*
X144419052Y-85450948D01*
X144438429Y-85466850D01*
X144496404Y-85514429D01*
X144584655Y-85561600D01*
X144584657Y-85561601D01*
X144680415Y-85590649D01*
X144755053Y-85598000D01*
X144755055Y-85598000D01*
X144779999Y-85600457D01*
X144804943Y-85598000D01*
X147109580Y-85598000D01*
X147447001Y-85935421D01*
X147447000Y-87917157D01*
X147355000Y-87917157D01*
X147280311Y-87924513D01*
X147208492Y-87946299D01*
X147142304Y-87981678D01*
X147084289Y-88029289D01*
X147036678Y-88087304D01*
X147001299Y-88153492D01*
X146979513Y-88225311D01*
X146975509Y-88265968D01*
X146804764Y-88229841D01*
X146134605Y-88900000D01*
X146804764Y-89570159D01*
X146975509Y-89534032D01*
X146979513Y-89574689D01*
X147001299Y-89646508D01*
X147036678Y-89712696D01*
X147084289Y-89770711D01*
X147142304Y-89818322D01*
X147208492Y-89853701D01*
X147280311Y-89875487D01*
X147355000Y-89882843D01*
X148555000Y-89882843D01*
X148629689Y-89875487D01*
X148701508Y-89853701D01*
X148767696Y-89818322D01*
X148825711Y-89770711D01*
X148873322Y-89712696D01*
X148908701Y-89646508D01*
X148930487Y-89574689D01*
X148937843Y-89500000D01*
X148937843Y-88300000D01*
X148930487Y-88225311D01*
X148908701Y-88153492D01*
X148873322Y-88087304D01*
X148825711Y-88029289D01*
X148767696Y-87981678D01*
X148701508Y-87946299D01*
X148629689Y-87924513D01*
X148555000Y-87917157D01*
X148463000Y-87917157D01*
X148463000Y-85749944D01*
X148465457Y-85725000D01*
X148463000Y-85700053D01*
X148455649Y-85625415D01*
X148426601Y-85529657D01*
X148379429Y-85441405D01*
X148315948Y-85364052D01*
X148296565Y-85348145D01*
X147696855Y-84748435D01*
X147680948Y-84729052D01*
X147603595Y-84665571D01*
X147515343Y-84618399D01*
X147419585Y-84589351D01*
X147344947Y-84582000D01*
X147344944Y-84582000D01*
X147320000Y-84579543D01*
X147295056Y-84582000D01*
X144990421Y-84582000D01*
X144018000Y-83609580D01*
X144018000Y-81392843D01*
X144462500Y-81392843D01*
X144537189Y-81385487D01*
X144609008Y-81363701D01*
X144675196Y-81328322D01*
X144733211Y-81280711D01*
X144780822Y-81222696D01*
X144816201Y-81156508D01*
X144837987Y-81084689D01*
X144839365Y-81070702D01*
X144940563Y-81191315D01*
X145183077Y-81385969D01*
X145458906Y-81529571D01*
X145677020Y-81600563D01*
X145923000Y-81480594D01*
X145923000Y-80137000D01*
X145903000Y-80137000D01*
X145903000Y-79883000D01*
X145923000Y-79883000D01*
X145923000Y-78539406D01*
X146177000Y-78539406D01*
X146177000Y-79883000D01*
X146197000Y-79883000D01*
X146197000Y-80137000D01*
X146177000Y-80137000D01*
X146177000Y-81480594D01*
X146422980Y-81600563D01*
X146641094Y-81529571D01*
X146916923Y-81385969D01*
X147159437Y-81191315D01*
X147359316Y-80953089D01*
X147459270Y-80770879D01*
X147475871Y-80801937D01*
X147642512Y-81004989D01*
X147845564Y-81171629D01*
X148077224Y-81295454D01*
X148082001Y-81296903D01*
X148082001Y-82525046D01*
X148079543Y-82550000D01*
X148089352Y-82649584D01*
X148118400Y-82745343D01*
X148165571Y-82833595D01*
X148213150Y-82891570D01*
X148229053Y-82910948D01*
X148248430Y-82926850D01*
X149483149Y-84161570D01*
X149499052Y-84180948D01*
X149518429Y-84196850D01*
X149576404Y-84244429D01*
X149628753Y-84272410D01*
X149664657Y-84291601D01*
X149760415Y-84320649D01*
X149835053Y-84328000D01*
X149835055Y-84328000D01*
X149859999Y-84330457D01*
X149884943Y-84328000D01*
X152257580Y-84328000D01*
X152584765Y-84655185D01*
X152570925Y-84688599D01*
X152527000Y-84909424D01*
X152527000Y-85134576D01*
X152570925Y-85355401D01*
X152657087Y-85563413D01*
X152782174Y-85750620D01*
X152941380Y-85909826D01*
X153128587Y-86034913D01*
X153336599Y-86121075D01*
X153557424Y-86165000D01*
X153782576Y-86165000D01*
X154003401Y-86121075D01*
X154211413Y-86034913D01*
X154398620Y-85909826D01*
X154557826Y-85750620D01*
X154682913Y-85563413D01*
X154769075Y-85355401D01*
X154813000Y-85134576D01*
X154813000Y-84909424D01*
X155067000Y-84909424D01*
X155067000Y-85134576D01*
X155110925Y-85355401D01*
X155197087Y-85563413D01*
X155322174Y-85750620D01*
X155481380Y-85909826D01*
X155668587Y-86034913D01*
X155876599Y-86121075D01*
X156097424Y-86165000D01*
X156322576Y-86165000D01*
X156543401Y-86121075D01*
X156751413Y-86034913D01*
X156938620Y-85909826D01*
X157097826Y-85750620D01*
X157222913Y-85563413D01*
X157309075Y-85355401D01*
X157353000Y-85134576D01*
X157353000Y-84909424D01*
X157309075Y-84688599D01*
X157222913Y-84480587D01*
X157097826Y-84293380D01*
X156938620Y-84134174D01*
X156751413Y-84009087D01*
X156543401Y-83922925D01*
X156322576Y-83879000D01*
X156097424Y-83879000D01*
X155876599Y-83922925D01*
X155668587Y-84009087D01*
X155481380Y-84134174D01*
X155322174Y-84293380D01*
X155197087Y-84480587D01*
X155110925Y-84688599D01*
X155067000Y-84909424D01*
X154813000Y-84909424D01*
X154769075Y-84688599D01*
X154682913Y-84480587D01*
X154557826Y-84293380D01*
X154398620Y-84134174D01*
X154211413Y-84009087D01*
X154202871Y-84005549D01*
X155150421Y-83058000D01*
X159995056Y-83058000D01*
X160020000Y-83060457D01*
X160044944Y-83058000D01*
X163619580Y-83058000D01*
X164456000Y-83894421D01*
X164456000Y-83980946D01*
X164456001Y-83980956D01*
X164456000Y-91229580D01*
X163551580Y-92134000D01*
X162316753Y-92134000D01*
X162302913Y-92100587D01*
X162177826Y-91913380D01*
X162018620Y-91754174D01*
X161831413Y-91629087D01*
X161623401Y-91542925D01*
X161402576Y-91499000D01*
X161177424Y-91499000D01*
X160956599Y-91542925D01*
X160748587Y-91629087D01*
X160561380Y-91754174D01*
X160402174Y-91913380D01*
X160277087Y-92100587D01*
X160190925Y-92308599D01*
X160147000Y-92529424D01*
X160147000Y-92754576D01*
X160190925Y-92975401D01*
X160277087Y-93183413D01*
X160402174Y-93370620D01*
X160561380Y-93529826D01*
X160748587Y-93654913D01*
X160782000Y-93668753D01*
X160782001Y-97992116D01*
X160730587Y-98013412D01*
X160537157Y-98142658D01*
X160372658Y-98307157D01*
X160243412Y-98500587D01*
X160154386Y-98715515D01*
X160109000Y-98943682D01*
X160109000Y-99176318D01*
X160154386Y-99404485D01*
X160243412Y-99619413D01*
X160372658Y-99812843D01*
X160537157Y-99977342D01*
X160730587Y-100106588D01*
X160945515Y-100195614D01*
X161173682Y-100241000D01*
X161406318Y-100241000D01*
X161634485Y-100195614D01*
X161849413Y-100106588D01*
X162042843Y-99977342D01*
X162207342Y-99812843D01*
X162336588Y-99619413D01*
X162425614Y-99404485D01*
X162471000Y-99176318D01*
X162471000Y-98943682D01*
X162425614Y-98715515D01*
X162336588Y-98500587D01*
X162207342Y-98307157D01*
X162042843Y-98142658D01*
X161849413Y-98013412D01*
X161798000Y-97992116D01*
X161798000Y-93668753D01*
X161831413Y-93654913D01*
X162018620Y-93529826D01*
X162177826Y-93370620D01*
X162302913Y-93183413D01*
X162316753Y-93150000D01*
X163737056Y-93150000D01*
X163762000Y-93152457D01*
X163786944Y-93150000D01*
X163786947Y-93150000D01*
X163861585Y-93142649D01*
X163957343Y-93113601D01*
X164045595Y-93066429D01*
X164122948Y-93002948D01*
X164138855Y-92983565D01*
X165305565Y-91816855D01*
X165324948Y-91800948D01*
X165388429Y-91723595D01*
X165435601Y-91635343D01*
X165464649Y-91539585D01*
X165472000Y-91464947D01*
X165472000Y-91464944D01*
X165474457Y-91440000D01*
X165472000Y-91415053D01*
X165472000Y-83708943D01*
X165474457Y-83683999D01*
X165468612Y-83624655D01*
X165464649Y-83584416D01*
X165435601Y-83488657D01*
X165419777Y-83459052D01*
X165388429Y-83400404D01*
X165340850Y-83342429D01*
X165324948Y-83323052D01*
X165305571Y-83307150D01*
X164206855Y-82208435D01*
X164190948Y-82189052D01*
X164113595Y-82125571D01*
X164025343Y-82078399D01*
X163929585Y-82049351D01*
X163854947Y-82042000D01*
X163854944Y-82042000D01*
X163830000Y-82039543D01*
X163805056Y-82042000D01*
X161246421Y-82042000D01*
X161631571Y-81656850D01*
X161650948Y-81640948D01*
X161684091Y-81600563D01*
X161714429Y-81563596D01*
X161761600Y-81475345D01*
X161761601Y-81475342D01*
X161790649Y-81379585D01*
X161798000Y-81304947D01*
X161798000Y-81304945D01*
X161800457Y-81280001D01*
X161798000Y-81255057D01*
X161798000Y-79807884D01*
X161849413Y-79786588D01*
X162042843Y-79657342D01*
X162207342Y-79492843D01*
X162336588Y-79299413D01*
X162425614Y-79084485D01*
X162471000Y-78856318D01*
X162471000Y-78623682D01*
X162425614Y-78395515D01*
X162336588Y-78180587D01*
X162207342Y-77987157D01*
X162042843Y-77822658D01*
X161849413Y-77693412D01*
X161634485Y-77604386D01*
X161406318Y-77559000D01*
X161173682Y-77559000D01*
X160945515Y-77604386D01*
X160730587Y-77693412D01*
X160537157Y-77822658D01*
X160372658Y-77987157D01*
X160243412Y-78180587D01*
X160154386Y-78395515D01*
X160109000Y-78623682D01*
X160109000Y-78856318D01*
X160154386Y-79084485D01*
X160243412Y-79299413D01*
X160372658Y-79492843D01*
X160537157Y-79657342D01*
X160730587Y-79786588D01*
X160782001Y-79807884D01*
X160782000Y-81069579D01*
X159809580Y-82042000D01*
X154964943Y-82042000D01*
X154939999Y-82039543D01*
X154915055Y-82042000D01*
X154915053Y-82042000D01*
X154840415Y-82049351D01*
X154744657Y-82078399D01*
X154744655Y-82078400D01*
X154656404Y-82125571D01*
X154601810Y-82170376D01*
X154579052Y-82189052D01*
X154563150Y-82208429D01*
X153328430Y-83443150D01*
X153309053Y-83459052D01*
X153293151Y-83478429D01*
X153293150Y-83478430D01*
X153245571Y-83536405D01*
X153198400Y-83624657D01*
X153169352Y-83720416D01*
X153161953Y-83795533D01*
X152844855Y-83478435D01*
X152828948Y-83459052D01*
X152751595Y-83395571D01*
X152663343Y-83348399D01*
X152567585Y-83319351D01*
X152492947Y-83312000D01*
X152492944Y-83312000D01*
X152468000Y-83309543D01*
X152443056Y-83312000D01*
X150070421Y-83312000D01*
X149098000Y-82339580D01*
X149098000Y-81296903D01*
X149102777Y-81295454D01*
X149334437Y-81171629D01*
X149537489Y-81004989D01*
X149704129Y-80801936D01*
X149827954Y-80570276D01*
X149904205Y-80318911D01*
X149923500Y-80123007D01*
X149923500Y-79896992D01*
X149904205Y-79701088D01*
X149827954Y-79449723D01*
X149704129Y-79218063D01*
X149537489Y-79015011D01*
X149334436Y-78848371D01*
X149102776Y-78724546D01*
X148851411Y-78648295D01*
X148590000Y-78622548D01*
X148328588Y-78648295D01*
X148077223Y-78724546D01*
X147845563Y-78848371D01*
X147642511Y-79015011D01*
X147475871Y-79218064D01*
X147459271Y-79249121D01*
X147359316Y-79066911D01*
X147159437Y-78828685D01*
X146916923Y-78634031D01*
X146641094Y-78490429D01*
X146422980Y-78419437D01*
X146177000Y-78539406D01*
X145923000Y-78539406D01*
X145677020Y-78419437D01*
X145458906Y-78490429D01*
X145183077Y-78634031D01*
X144940563Y-78828685D01*
X144839365Y-78949298D01*
X144837987Y-78935311D01*
X144816201Y-78863492D01*
X144780822Y-78797304D01*
X144733211Y-78739289D01*
X144675196Y-78691678D01*
X144609008Y-78656299D01*
X144537189Y-78634513D01*
X144462500Y-78627157D01*
X144018000Y-78627157D01*
X144018000Y-76224943D01*
X144020457Y-76199999D01*
X144018000Y-76175053D01*
X144010649Y-76100415D01*
X143981601Y-76004657D01*
X143981600Y-76004655D01*
X143934429Y-75916404D01*
X143886850Y-75858429D01*
X143870948Y-75839052D01*
X143851571Y-75823150D01*
X142616855Y-74588435D01*
X142600948Y-74569052D01*
X142523595Y-74505571D01*
X142435343Y-74458399D01*
X142339585Y-74429351D01*
X142264947Y-74422000D01*
X142264944Y-74422000D01*
X142240000Y-74419543D01*
X142215056Y-74422000D01*
X136100421Y-74422000D01*
X135128000Y-73449580D01*
X135128000Y-66452843D01*
X135920000Y-66452843D01*
X135994689Y-66445487D01*
X136066508Y-66423701D01*
X136132696Y-66388322D01*
X136190711Y-66340711D01*
X136238322Y-66282696D01*
X136273701Y-66216508D01*
X136295487Y-66144689D01*
X136297995Y-66119224D01*
X138530381Y-66119224D01*
X138662317Y-66414312D01*
X139003045Y-66585159D01*
X139370557Y-66686250D01*
X139750729Y-66713701D01*
X140128951Y-66666457D01*
X140490690Y-66546333D01*
X140737683Y-66414312D01*
X140869619Y-66119224D01*
X139700000Y-64949605D01*
X138530381Y-66119224D01*
X136297995Y-66119224D01*
X136302843Y-66070000D01*
X136302843Y-64820729D01*
X137756299Y-64820729D01*
X137803543Y-65198951D01*
X137923667Y-65560690D01*
X138055688Y-65807683D01*
X138350776Y-65939619D01*
X139520395Y-64770000D01*
X139879605Y-64770000D01*
X141049224Y-65939619D01*
X141344312Y-65807683D01*
X141515159Y-65466955D01*
X141616250Y-65099443D01*
X141643701Y-64719271D01*
X141596457Y-64341049D01*
X141476333Y-63979310D01*
X141344312Y-63732317D01*
X141049224Y-63600381D01*
X139879605Y-64770000D01*
X139520395Y-64770000D01*
X138350776Y-63600381D01*
X138055688Y-63732317D01*
X137884841Y-64073045D01*
X137783750Y-64440557D01*
X137756299Y-64820729D01*
X136302843Y-64820729D01*
X136302843Y-63470000D01*
X136297996Y-63420776D01*
X138530381Y-63420776D01*
X139700000Y-64590395D01*
X140869619Y-63420776D01*
X140737683Y-63125688D01*
X140396955Y-62954841D01*
X140029443Y-62853750D01*
X139649271Y-62826299D01*
X139271049Y-62873543D01*
X138909310Y-62993667D01*
X138662317Y-63125688D01*
X138530381Y-63420776D01*
X136297996Y-63420776D01*
X136295487Y-63395311D01*
X136273701Y-63323492D01*
X136238322Y-63257304D01*
X136190711Y-63199289D01*
X136132696Y-63151678D01*
X136066508Y-63116299D01*
X135994689Y-63094513D01*
X135920000Y-63087157D01*
X133320000Y-63087157D01*
X133245311Y-63094513D01*
X133173492Y-63116299D01*
X133107304Y-63151678D01*
X133049289Y-63199289D01*
X133001678Y-63257304D01*
X132966299Y-63323492D01*
X132944513Y-63395311D01*
X132937157Y-63470000D01*
X107073700Y-63470000D01*
X107073700Y-62400000D01*
X149647157Y-62400000D01*
X149647157Y-64600000D01*
X149654513Y-64674689D01*
X149676299Y-64746508D01*
X149711678Y-64812696D01*
X149759289Y-64870711D01*
X149817304Y-64918322D01*
X149883492Y-64953701D01*
X149955311Y-64975487D01*
X150030000Y-64982843D01*
X150622000Y-64982843D01*
X150622001Y-69727397D01*
X150428483Y-69807555D01*
X150185917Y-69969632D01*
X149979632Y-70175917D01*
X149817555Y-70418483D01*
X149705914Y-70688008D01*
X149649000Y-70974134D01*
X149649000Y-71265866D01*
X149705914Y-71551992D01*
X149817555Y-71821517D01*
X149979632Y-72064083D01*
X150185917Y-72270368D01*
X150428483Y-72432445D01*
X150622001Y-72512603D01*
X150622001Y-73635046D01*
X150619543Y-73660000D01*
X150629352Y-73759584D01*
X150658400Y-73855343D01*
X150705571Y-73943595D01*
X150753150Y-74001570D01*
X150769053Y-74020948D01*
X150788430Y-74036850D01*
X153162000Y-76410421D01*
X153162001Y-77672116D01*
X153110587Y-77693412D01*
X152917157Y-77822658D01*
X152752658Y-77987157D01*
X152623412Y-78180587D01*
X152534386Y-78395515D01*
X152489000Y-78623682D01*
X152489000Y-78856318D01*
X152534386Y-79084485D01*
X152623412Y-79299413D01*
X152752658Y-79492843D01*
X152917157Y-79657342D01*
X153110587Y-79786588D01*
X153325515Y-79875614D01*
X153553682Y-79921000D01*
X153786318Y-79921000D01*
X154014485Y-79875614D01*
X154229413Y-79786588D01*
X154422843Y-79657342D01*
X154587342Y-79492843D01*
X154716588Y-79299413D01*
X154805614Y-79084485D01*
X154851000Y-78856318D01*
X154851000Y-78623682D01*
X154805614Y-78395515D01*
X154716588Y-78180587D01*
X154587342Y-77987157D01*
X154422843Y-77822658D01*
X154229413Y-77693412D01*
X154178000Y-77672116D01*
X154178000Y-76224943D01*
X154180457Y-76199999D01*
X154178000Y-76175053D01*
X154170649Y-76100415D01*
X154141601Y-76004657D01*
X154141600Y-76004655D01*
X154094429Y-75916404D01*
X154046850Y-75858429D01*
X154030948Y-75839052D01*
X154011571Y-75823150D01*
X151638000Y-73449580D01*
X151638000Y-72512602D01*
X151831517Y-72432445D01*
X152074083Y-72270368D01*
X152280368Y-72064083D01*
X152442445Y-71821517D01*
X152554086Y-71551992D01*
X152611000Y-71265866D01*
X152611000Y-70974134D01*
X152554086Y-70688008D01*
X152442445Y-70418483D01*
X152280368Y-70175917D01*
X152124451Y-70020000D01*
X159807157Y-70020000D01*
X159807157Y-72220000D01*
X159814513Y-72294689D01*
X159836299Y-72366508D01*
X159871678Y-72432696D01*
X159919289Y-72490711D01*
X159977304Y-72538322D01*
X160043492Y-72573701D01*
X160115311Y-72595487D01*
X160190000Y-72602843D01*
X162390000Y-72602843D01*
X162464689Y-72595487D01*
X162536508Y-72573701D01*
X162602696Y-72538322D01*
X162660711Y-72490711D01*
X162708322Y-72432696D01*
X162743701Y-72366508D01*
X162765487Y-72294689D01*
X162772843Y-72220000D01*
X162772843Y-71628000D01*
X168699580Y-71628000D01*
X169672001Y-72600422D01*
X169672000Y-92685053D01*
X169669543Y-92710000D01*
X169672000Y-92734944D01*
X169672000Y-92734946D01*
X169679351Y-92809584D01*
X169708399Y-92905342D01*
X169755571Y-92993595D01*
X169819052Y-93070948D01*
X169838435Y-93086855D01*
X171073150Y-94321571D01*
X171089052Y-94340948D01*
X171108429Y-94356850D01*
X171166404Y-94404429D01*
X171218753Y-94432410D01*
X171254657Y-94451601D01*
X171350415Y-94480649D01*
X171425053Y-94488000D01*
X171425055Y-94488000D01*
X171449999Y-94490457D01*
X171474943Y-94488000D01*
X173791630Y-94488000D01*
X173885521Y-94714674D01*
X174055259Y-94968705D01*
X174271295Y-95184741D01*
X174525326Y-95354479D01*
X174807590Y-95471396D01*
X175107240Y-95531000D01*
X175412760Y-95531000D01*
X175712410Y-95471396D01*
X175994674Y-95354479D01*
X176248705Y-95184741D01*
X176464741Y-94968705D01*
X176634479Y-94714674D01*
X176751396Y-94432410D01*
X176811000Y-94132760D01*
X176811000Y-93827240D01*
X176751396Y-93527590D01*
X176634479Y-93245326D01*
X176464741Y-92991295D01*
X176248705Y-92775259D01*
X175994674Y-92605521D01*
X175712410Y-92488604D01*
X175412760Y-92429000D01*
X175107240Y-92429000D01*
X174807590Y-92488604D01*
X174525326Y-92605521D01*
X174271295Y-92775259D01*
X174055259Y-92991295D01*
X173885521Y-93245326D01*
X173791630Y-93472000D01*
X171660421Y-93472000D01*
X170688000Y-92499580D01*
X170688000Y-88827240D01*
X173709000Y-88827240D01*
X173709000Y-89132760D01*
X173768604Y-89432410D01*
X173885521Y-89714674D01*
X174055259Y-89968705D01*
X174271295Y-90184741D01*
X174525326Y-90354479D01*
X174807590Y-90471396D01*
X175107240Y-90531000D01*
X175412760Y-90531000D01*
X175712410Y-90471396D01*
X175994674Y-90354479D01*
X176248705Y-90184741D01*
X176464741Y-89968705D01*
X176634479Y-89714674D01*
X176751396Y-89432410D01*
X176811000Y-89132760D01*
X176811000Y-88827240D01*
X176751396Y-88527590D01*
X176634479Y-88245326D01*
X176464741Y-87991295D01*
X176248705Y-87775259D01*
X175994674Y-87605521D01*
X175712410Y-87488604D01*
X175412760Y-87429000D01*
X175107240Y-87429000D01*
X174807590Y-87488604D01*
X174525326Y-87605521D01*
X174271295Y-87775259D01*
X174055259Y-87991295D01*
X173885521Y-88245326D01*
X173768604Y-88527590D01*
X173709000Y-88827240D01*
X170688000Y-88827240D01*
X170688000Y-72414943D01*
X170690457Y-72389999D01*
X170688000Y-72365053D01*
X170680649Y-72290415D01*
X170651601Y-72194657D01*
X170651600Y-72194655D01*
X170604429Y-72106404D01*
X170556850Y-72048429D01*
X170540948Y-72029052D01*
X170521571Y-72013150D01*
X169286855Y-70778435D01*
X169270948Y-70759052D01*
X169193595Y-70695571D01*
X169105343Y-70648399D01*
X169009585Y-70619351D01*
X168934947Y-70612000D01*
X168934944Y-70612000D01*
X168910000Y-70609543D01*
X168885056Y-70612000D01*
X162772843Y-70612000D01*
X162772843Y-70020000D01*
X162765487Y-69945311D01*
X162743701Y-69873492D01*
X162708322Y-69807304D01*
X162660711Y-69749289D01*
X162602696Y-69701678D01*
X162536508Y-69666299D01*
X162464689Y-69644513D01*
X162390000Y-69637157D01*
X160190000Y-69637157D01*
X160115311Y-69644513D01*
X160043492Y-69666299D01*
X159977304Y-69701678D01*
X159919289Y-69749289D01*
X159871678Y-69807304D01*
X159836299Y-69873492D01*
X159814513Y-69945311D01*
X159807157Y-70020000D01*
X152124451Y-70020000D01*
X152074083Y-69969632D01*
X151831517Y-69807555D01*
X151638000Y-69727398D01*
X151638000Y-64982843D01*
X152230000Y-64982843D01*
X152304689Y-64975487D01*
X152376508Y-64953701D01*
X152442696Y-64918322D01*
X152500711Y-64870711D01*
X152548322Y-64812696D01*
X152583701Y-64746508D01*
X152605487Y-64674689D01*
X152612843Y-64600000D01*
X152612843Y-63354134D01*
X159809000Y-63354134D01*
X159809000Y-63645866D01*
X159865914Y-63931992D01*
X159977555Y-64201517D01*
X160139632Y-64444083D01*
X160345917Y-64650368D01*
X160588483Y-64812445D01*
X160858008Y-64924086D01*
X161144134Y-64981000D01*
X161435866Y-64981000D01*
X161721992Y-64924086D01*
X161991517Y-64812445D01*
X162234083Y-64650368D01*
X162440368Y-64444083D01*
X162602445Y-64201517D01*
X162682602Y-64008000D01*
X173779580Y-64008000D01*
X174752000Y-64980421D01*
X174752001Y-82351630D01*
X174525326Y-82445521D01*
X174271295Y-82615259D01*
X174055259Y-82831295D01*
X173885521Y-83085326D01*
X173768604Y-83367590D01*
X173709000Y-83667240D01*
X173709000Y-83972760D01*
X173768604Y-84272410D01*
X173885521Y-84554674D01*
X174055259Y-84808705D01*
X174271295Y-85024741D01*
X174525326Y-85194479D01*
X174807590Y-85311396D01*
X175107240Y-85371000D01*
X175412760Y-85371000D01*
X175712410Y-85311396D01*
X175994674Y-85194479D01*
X176248705Y-85024741D01*
X176464741Y-84808705D01*
X176634479Y-84554674D01*
X176751396Y-84272410D01*
X176811000Y-83972760D01*
X176811000Y-83667240D01*
X176751396Y-83367590D01*
X176634479Y-83085326D01*
X176464741Y-82831295D01*
X176248705Y-82615259D01*
X175994674Y-82445521D01*
X175768000Y-82351630D01*
X175768000Y-64794943D01*
X175770457Y-64769999D01*
X175768000Y-64745053D01*
X175760649Y-64670415D01*
X175731601Y-64574657D01*
X175731600Y-64574655D01*
X175684429Y-64486404D01*
X175636850Y-64428429D01*
X175620948Y-64409052D01*
X175601571Y-64393150D01*
X174366855Y-63158435D01*
X174350948Y-63139052D01*
X174273595Y-63075571D01*
X174185343Y-63028399D01*
X174089585Y-62999351D01*
X174014947Y-62992000D01*
X174014944Y-62992000D01*
X173990000Y-62989543D01*
X173965056Y-62992000D01*
X162682602Y-62992000D01*
X162602445Y-62798483D01*
X162440368Y-62555917D01*
X162234083Y-62349632D01*
X161991517Y-62187555D01*
X161721992Y-62075914D01*
X161435866Y-62019000D01*
X161144134Y-62019000D01*
X160858008Y-62075914D01*
X160588483Y-62187555D01*
X160345917Y-62349632D01*
X160139632Y-62555917D01*
X159977555Y-62798483D01*
X159865914Y-63068008D01*
X159809000Y-63354134D01*
X152612843Y-63354134D01*
X152612843Y-62400000D01*
X152605487Y-62325311D01*
X152583701Y-62253492D01*
X152548322Y-62187304D01*
X152500711Y-62129289D01*
X152442696Y-62081678D01*
X152376508Y-62046299D01*
X152304689Y-62024513D01*
X152230000Y-62017157D01*
X150030000Y-62017157D01*
X149955311Y-62024513D01*
X149883492Y-62046299D01*
X149817304Y-62081678D01*
X149759289Y-62129289D01*
X149711678Y-62187304D01*
X149676299Y-62253492D01*
X149654513Y-62325311D01*
X149647157Y-62400000D01*
X107073700Y-62400000D01*
X107073700Y-59477665D01*
X112144131Y-59477665D01*
X112144131Y-59902335D01*
X112226980Y-60318844D01*
X112389494Y-60711187D01*
X112625427Y-61064286D01*
X112925714Y-61364573D01*
X113278813Y-61600506D01*
X113671156Y-61763020D01*
X114087665Y-61845869D01*
X114512335Y-61845869D01*
X114928844Y-61763020D01*
X115321187Y-61600506D01*
X115674286Y-61364573D01*
X115974573Y-61064286D01*
X116210506Y-60711187D01*
X116373020Y-60318844D01*
X116455869Y-59902335D01*
X116455869Y-59477665D01*
X185804131Y-59477665D01*
X185804131Y-59902335D01*
X185886980Y-60318844D01*
X186049494Y-60711187D01*
X186285427Y-61064286D01*
X186585714Y-61364573D01*
X186938813Y-61600506D01*
X187331156Y-61763020D01*
X187747665Y-61845869D01*
X188172335Y-61845869D01*
X188588844Y-61763020D01*
X188981187Y-61600506D01*
X189334286Y-61364573D01*
X189634573Y-61064286D01*
X189870506Y-60711187D01*
X190033020Y-60318844D01*
X190115869Y-59902335D01*
X190115869Y-59477665D01*
X190033020Y-59061156D01*
X189870506Y-58668813D01*
X189634573Y-58315714D01*
X189334286Y-58015427D01*
X188981187Y-57779494D01*
X188588844Y-57616980D01*
X188172335Y-57534131D01*
X187747665Y-57534131D01*
X187331156Y-57616980D01*
X186938813Y-57779494D01*
X186585714Y-58015427D01*
X186285427Y-58315714D01*
X186049494Y-58668813D01*
X185886980Y-59061156D01*
X185804131Y-59477665D01*
X116455869Y-59477665D01*
X116373020Y-59061156D01*
X116210506Y-58668813D01*
X115974573Y-58315714D01*
X115674286Y-58015427D01*
X115321187Y-57779494D01*
X114928844Y-57616980D01*
X114512335Y-57534131D01*
X114087665Y-57534131D01*
X113671156Y-57616980D01*
X113278813Y-57779494D01*
X112925714Y-58015427D01*
X112625427Y-58315714D01*
X112389494Y-58668813D01*
X112226980Y-59061156D01*
X112144131Y-59477665D01*
X107073700Y-59477665D01*
X107073700Y-52463700D01*
X195186301Y-52463700D01*
X195186300Y-127876300D01*
%TA.AperFunction,Conductor*%
D28*
G36*
X195186300Y-127876300D02*
G01*
X107073700Y-127876300D01*
X107073700Y-120437665D01*
X112144131Y-120437665D01*
X112144131Y-120862335D01*
X112226980Y-121278844D01*
X112389494Y-121671187D01*
X112625427Y-122024286D01*
X112925714Y-122324573D01*
X113278813Y-122560506D01*
X113671156Y-122723020D01*
X114087665Y-122805869D01*
X114512335Y-122805869D01*
X114928844Y-122723020D01*
X115321187Y-122560506D01*
X115674286Y-122324573D01*
X115974573Y-122024286D01*
X116210506Y-121671187D01*
X116373020Y-121278844D01*
X116455869Y-120862335D01*
X116455869Y-120437665D01*
X185804131Y-120437665D01*
X185804131Y-120862335D01*
X185886980Y-121278844D01*
X186049494Y-121671187D01*
X186285427Y-122024286D01*
X186585714Y-122324573D01*
X186938813Y-122560506D01*
X187331156Y-122723020D01*
X187747665Y-122805869D01*
X188172335Y-122805869D01*
X188588844Y-122723020D01*
X188981187Y-122560506D01*
X189334286Y-122324573D01*
X189634573Y-122024286D01*
X189870506Y-121671187D01*
X190033020Y-121278844D01*
X190115869Y-120862335D01*
X190115869Y-120437665D01*
X190033020Y-120021156D01*
X189870506Y-119628813D01*
X189634573Y-119275714D01*
X189334286Y-118975427D01*
X188981187Y-118739494D01*
X188588844Y-118576980D01*
X188172335Y-118494131D01*
X187747665Y-118494131D01*
X187331156Y-118576980D01*
X186938813Y-118739494D01*
X186585714Y-118975427D01*
X186285427Y-119275714D01*
X186049494Y-119628813D01*
X185886980Y-120021156D01*
X185804131Y-120437665D01*
X116455869Y-120437665D01*
X116373020Y-120021156D01*
X116210506Y-119628813D01*
X115974573Y-119275714D01*
X115674286Y-118975427D01*
X115321187Y-118739494D01*
X114928844Y-118576980D01*
X114512335Y-118494131D01*
X114087665Y-118494131D01*
X113671156Y-118576980D01*
X113278813Y-118739494D01*
X112925714Y-118975427D01*
X112625427Y-119275714D01*
X112389494Y-119628813D01*
X112226980Y-120021156D01*
X112144131Y-120437665D01*
X107073700Y-120437665D01*
X107073700Y-115404436D01*
X132939000Y-115404436D01*
X132939000Y-115735564D01*
X133003600Y-116060330D01*
X133130317Y-116366252D01*
X133314282Y-116641575D01*
X133548425Y-116875718D01*
X133823748Y-117059683D01*
X134129670Y-117186400D01*
X134454436Y-117251000D01*
X134785564Y-117251000D01*
X135110330Y-117186400D01*
X135416252Y-117059683D01*
X135691575Y-116875718D01*
X135925718Y-116641575D01*
X136109683Y-116366252D01*
X136236400Y-116060330D01*
X136301000Y-115735564D01*
X136301000Y-115404436D01*
X136236400Y-115079670D01*
X136109683Y-114773748D01*
X135925718Y-114498425D01*
X135691575Y-114264282D01*
X135416252Y-114080317D01*
X135110330Y-113953600D01*
X134785564Y-113889000D01*
X134454436Y-113889000D01*
X134129670Y-113953600D01*
X133823748Y-114080317D01*
X133548425Y-114264282D01*
X133314282Y-114498425D01*
X133130317Y-114773748D01*
X133003600Y-115079670D01*
X132939000Y-115404436D01*
X107073700Y-115404436D01*
X107073700Y-90170000D01*
X110611471Y-90170000D01*
X110617000Y-90226139D01*
X110617001Y-97733851D01*
X110611471Y-97790000D01*
X110633539Y-98014067D01*
X110675062Y-98150948D01*
X110698898Y-98229523D01*
X110805033Y-98428089D01*
X110835070Y-98464689D01*
X110894011Y-98536508D01*
X110947868Y-98602133D01*
X110991478Y-98637923D01*
X112182077Y-99828523D01*
X112217867Y-99872133D01*
X112391911Y-100014968D01*
X112590477Y-100121103D01*
X112740574Y-100166635D01*
X112805932Y-100186461D01*
X112828600Y-100188694D01*
X112973854Y-100203000D01*
X112973860Y-100203000D01*
X113029999Y-100208529D01*
X113086138Y-100203000D01*
X116205001Y-100203000D01*
X116205000Y-106586420D01*
X116195783Y-106680000D01*
X116205000Y-106773580D01*
X116205000Y-106773581D01*
X116232564Y-107053444D01*
X116341494Y-107412538D01*
X116518387Y-107743482D01*
X116756444Y-108033556D01*
X116829145Y-108093220D01*
X117966784Y-109230860D01*
X118026444Y-109303556D01*
X118218319Y-109461023D01*
X118316517Y-109541613D01*
X118493410Y-109636164D01*
X118647461Y-109718506D01*
X119006555Y-109827436D01*
X119286418Y-109855000D01*
X119286419Y-109855000D01*
X119379999Y-109864217D01*
X119473579Y-109855000D01*
X137640925Y-109855000D01*
X137795001Y-110009076D01*
X137795000Y-115663581D01*
X137822564Y-115943444D01*
X137931494Y-116302538D01*
X138017157Y-116462802D01*
X138017157Y-116870000D01*
X138024513Y-116944689D01*
X138046299Y-117016508D01*
X138081678Y-117082696D01*
X138129289Y-117140711D01*
X138187304Y-117188322D01*
X138253492Y-117223701D01*
X138325311Y-117245487D01*
X138400000Y-117252843D01*
X138807197Y-117252843D01*
X138967461Y-117338506D01*
X139326555Y-117447436D01*
X139700000Y-117484217D01*
X140073444Y-117447436D01*
X140432538Y-117338506D01*
X140592802Y-117252843D01*
X141000000Y-117252843D01*
X141074689Y-117245487D01*
X141146508Y-117223701D01*
X141212696Y-117188322D01*
X141270711Y-117140711D01*
X141318322Y-117082696D01*
X141353701Y-117016508D01*
X141375487Y-116944689D01*
X141382843Y-116870000D01*
X141382843Y-116462803D01*
X141468506Y-116302539D01*
X141577436Y-115943445D01*
X141605000Y-115663582D01*
X141605000Y-109313579D01*
X141614217Y-109219999D01*
X141605000Y-109126418D01*
X141577436Y-108846555D01*
X141468506Y-108487461D01*
X141386164Y-108333410D01*
X141291613Y-108156517D01*
X141190701Y-108033556D01*
X141053556Y-107866444D01*
X140980860Y-107806784D01*
X139843220Y-106669145D01*
X139783556Y-106596444D01*
X139493482Y-106358387D01*
X139162539Y-106181494D01*
X138803445Y-106072564D01*
X138523582Y-106045000D01*
X138523580Y-106045000D01*
X138430000Y-106035783D01*
X138336420Y-106045000D01*
X120169076Y-106045000D01*
X120015000Y-105890925D01*
X120015000Y-98933000D01*
X121863861Y-98933000D01*
X121920000Y-98938529D01*
X121976139Y-98933000D01*
X121976146Y-98933000D01*
X122144067Y-98916461D01*
X122359523Y-98851103D01*
X122558089Y-98744968D01*
X122732133Y-98602133D01*
X122767927Y-98558518D01*
X123958523Y-97367923D01*
X124002133Y-97332133D01*
X124144968Y-97158089D01*
X124251103Y-96959523D01*
X124316461Y-96744067D01*
X124333000Y-96576146D01*
X124333000Y-96576140D01*
X124338529Y-96520001D01*
X124333000Y-96463862D01*
X124333000Y-91364950D01*
X128778000Y-91364950D01*
X128778000Y-91515050D01*
X128807283Y-91662267D01*
X128864724Y-91800942D01*
X128948116Y-91925747D01*
X129054253Y-92031884D01*
X129179058Y-92115276D01*
X129317733Y-92172717D01*
X129464950Y-92202000D01*
X129615050Y-92202000D01*
X129762267Y-92172717D01*
X129900942Y-92115276D01*
X130025747Y-92031884D01*
X130109631Y-91948000D01*
X140759580Y-91948000D01*
X141732001Y-92920422D01*
X141732000Y-105385056D01*
X141729543Y-105410000D01*
X141732000Y-105434944D01*
X141732000Y-105434946D01*
X141739351Y-105509584D01*
X141768399Y-105605342D01*
X141815571Y-105693595D01*
X141879052Y-105770948D01*
X141898435Y-105786855D01*
X143133150Y-107021571D01*
X143149052Y-107040948D01*
X143168429Y-107056850D01*
X143226404Y-107104429D01*
X143314655Y-107151600D01*
X143314657Y-107151601D01*
X143410415Y-107180649D01*
X143485053Y-107188000D01*
X143485055Y-107188000D01*
X143509999Y-107190457D01*
X143534943Y-107188000D01*
X152602116Y-107188000D01*
X152623412Y-107239413D01*
X152752658Y-107432843D01*
X152917157Y-107597342D01*
X153110587Y-107726588D01*
X153162001Y-107747884D01*
X153162000Y-113232116D01*
X153110587Y-113253412D01*
X152917157Y-113382658D01*
X152752658Y-113547157D01*
X152623412Y-113740587D01*
X152534386Y-113955515D01*
X152489000Y-114183682D01*
X152489000Y-114416318D01*
X152534386Y-114644485D01*
X152623412Y-114859413D01*
X152752658Y-115052843D01*
X152917157Y-115217342D01*
X153110587Y-115346588D01*
X153325515Y-115435614D01*
X153553682Y-115481000D01*
X153786318Y-115481000D01*
X154014485Y-115435614D01*
X154229413Y-115346588D01*
X154422843Y-115217342D01*
X154587342Y-115052843D01*
X154716588Y-114859413D01*
X154803727Y-114649039D01*
X159898096Y-114649039D01*
X159938754Y-114783087D01*
X160058963Y-115037420D01*
X160226481Y-115263414D01*
X160434869Y-115452385D01*
X160676119Y-115597070D01*
X160940960Y-115691909D01*
X161163000Y-115570624D01*
X161163000Y-114427000D01*
X161417000Y-114427000D01*
X161417000Y-115570624D01*
X161639040Y-115691909D01*
X161903881Y-115597070D01*
X162145131Y-115452385D01*
X162353519Y-115263414D01*
X162521037Y-115037420D01*
X162641246Y-114783087D01*
X162681904Y-114649039D01*
X162559915Y-114427000D01*
X161417000Y-114427000D01*
X161163000Y-114427000D01*
X160020085Y-114427000D01*
X159898096Y-114649039D01*
X154803727Y-114649039D01*
X154805614Y-114644485D01*
X154851000Y-114416318D01*
X154851000Y-114183682D01*
X154805614Y-113955515D01*
X154803728Y-113950961D01*
X159898096Y-113950961D01*
X160020085Y-114173000D01*
X161163000Y-114173000D01*
X161163000Y-113029376D01*
X161417000Y-113029376D01*
X161417000Y-114173000D01*
X162559915Y-114173000D01*
X162681904Y-113950961D01*
X162641246Y-113816913D01*
X162521037Y-113562580D01*
X162353519Y-113336586D01*
X162145131Y-113147615D01*
X161903881Y-113002930D01*
X161639040Y-112908091D01*
X161417000Y-113029376D01*
X161163000Y-113029376D01*
X160940960Y-112908091D01*
X160676119Y-113002930D01*
X160434869Y-113147615D01*
X160226481Y-113336586D01*
X160058963Y-113562580D01*
X159938754Y-113816913D01*
X159898096Y-113950961D01*
X154803728Y-113950961D01*
X154716588Y-113740587D01*
X154587342Y-113547157D01*
X154422843Y-113382658D01*
X154229413Y-113253412D01*
X154178000Y-113232116D01*
X154178000Y-107747884D01*
X154229413Y-107726588D01*
X154422843Y-107597342D01*
X154587342Y-107432843D01*
X154716588Y-107239413D01*
X154805614Y-107024485D01*
X154851000Y-106796318D01*
X154851000Y-106563682D01*
X154805614Y-106335515D01*
X154716588Y-106120587D01*
X154587342Y-105927157D01*
X154422843Y-105762658D01*
X154229413Y-105633412D01*
X154014485Y-105544386D01*
X153786318Y-105499000D01*
X153553682Y-105499000D01*
X153325515Y-105544386D01*
X153110587Y-105633412D01*
X152917157Y-105762658D01*
X152752658Y-105927157D01*
X152623412Y-106120587D01*
X152602116Y-106172000D01*
X143720421Y-106172000D01*
X142748000Y-105199580D01*
X142748000Y-100052702D01*
X155476903Y-100052702D01*
X155548486Y-100296671D01*
X155803996Y-100417571D01*
X156078184Y-100486300D01*
X156360512Y-100500217D01*
X156640130Y-100458787D01*
X156906292Y-100363603D01*
X157031514Y-100296671D01*
X157103097Y-100052702D01*
X156290000Y-99239605D01*
X155476903Y-100052702D01*
X142748000Y-100052702D01*
X142748000Y-99130512D01*
X154849783Y-99130512D01*
X154891213Y-99410130D01*
X154986397Y-99676292D01*
X155053329Y-99801514D01*
X155297298Y-99873097D01*
X156110395Y-99060000D01*
X156469605Y-99060000D01*
X157282702Y-99873097D01*
X157526671Y-99801514D01*
X157647571Y-99546004D01*
X157716300Y-99271816D01*
X157730217Y-98989488D01*
X157688787Y-98709870D01*
X157593603Y-98443708D01*
X157526671Y-98318486D01*
X157282702Y-98246903D01*
X156469605Y-99060000D01*
X156110395Y-99060000D01*
X155297298Y-98246903D01*
X155053329Y-98318486D01*
X154932429Y-98573996D01*
X154863700Y-98848184D01*
X154849783Y-99130512D01*
X142748000Y-99130512D01*
X142748000Y-97190000D01*
X145067157Y-97190000D01*
X145067157Y-98390000D01*
X145074513Y-98464689D01*
X145096299Y-98536508D01*
X145131678Y-98602696D01*
X145179289Y-98660711D01*
X145237304Y-98708322D01*
X145303492Y-98743701D01*
X145375311Y-98765487D01*
X145450000Y-98772843D01*
X146650000Y-98772843D01*
X146724689Y-98765487D01*
X146796508Y-98743701D01*
X146862696Y-98708322D01*
X146920711Y-98660711D01*
X146937901Y-98639764D01*
X147379841Y-98639764D01*
X147427148Y-98863348D01*
X147648516Y-98964237D01*
X147885313Y-99020000D01*
X148128438Y-99028495D01*
X148368549Y-98989395D01*
X148596418Y-98904202D01*
X148672852Y-98863348D01*
X148720159Y-98639764D01*
X148050000Y-97969605D01*
X147379841Y-98639764D01*
X146937901Y-98639764D01*
X146968322Y-98602696D01*
X147003701Y-98536508D01*
X147025487Y-98464689D01*
X147029491Y-98424032D01*
X147200236Y-98460159D01*
X147870395Y-97790000D01*
X148229605Y-97790000D01*
X148899764Y-98460159D01*
X149123348Y-98412852D01*
X149224237Y-98191484D01*
X149253481Y-98067298D01*
X155476903Y-98067298D01*
X156290000Y-98880395D01*
X157103097Y-98067298D01*
X157031514Y-97823329D01*
X156776004Y-97702429D01*
X156501816Y-97633700D01*
X156219488Y-97619783D01*
X155939870Y-97661213D01*
X155673708Y-97756397D01*
X155548486Y-97823329D01*
X155476903Y-98067298D01*
X149253481Y-98067298D01*
X149280000Y-97954687D01*
X149288495Y-97711562D01*
X149249395Y-97471451D01*
X149164202Y-97243582D01*
X149123348Y-97167148D01*
X148899764Y-97119841D01*
X148229605Y-97790000D01*
X147870395Y-97790000D01*
X147200236Y-97119841D01*
X147029491Y-97155968D01*
X147025487Y-97115311D01*
X147003701Y-97043492D01*
X146968322Y-96977304D01*
X146937902Y-96940236D01*
X147379841Y-96940236D01*
X148050000Y-97610395D01*
X148720159Y-96940236D01*
X148672852Y-96716652D01*
X148451484Y-96615763D01*
X148214687Y-96560000D01*
X147971562Y-96551505D01*
X147731451Y-96590605D01*
X147503582Y-96675798D01*
X147427148Y-96716652D01*
X147379841Y-96940236D01*
X146937902Y-96940236D01*
X146920711Y-96919289D01*
X146862696Y-96871678D01*
X146843176Y-96861244D01*
X147946421Y-95758000D01*
X154915056Y-95758000D01*
X154940000Y-95760457D01*
X154964944Y-95758000D01*
X154964947Y-95758000D01*
X155039585Y-95750649D01*
X155135343Y-95721601D01*
X155223595Y-95674429D01*
X155300948Y-95610948D01*
X155316855Y-95591565D01*
X156551571Y-94356850D01*
X156570948Y-94340948D01*
X156589624Y-94318190D01*
X156634429Y-94263596D01*
X156681600Y-94175345D01*
X156694518Y-94132760D01*
X156710649Y-94079585D01*
X156718000Y-94004947D01*
X156718000Y-94004945D01*
X156720457Y-93980001D01*
X156718000Y-93955057D01*
X156718000Y-93668753D01*
X156751413Y-93654913D01*
X156938620Y-93529826D01*
X157097826Y-93370620D01*
X157222913Y-93183413D01*
X157309075Y-92975401D01*
X157353000Y-92754576D01*
X157353000Y-92529424D01*
X157607000Y-92529424D01*
X157607000Y-92754576D01*
X157650925Y-92975401D01*
X157737087Y-93183413D01*
X157862174Y-93370620D01*
X158021380Y-93529826D01*
X158208587Y-93654913D01*
X158242001Y-93668754D01*
X158242000Y-101575056D01*
X158239543Y-101600000D01*
X158242000Y-101624944D01*
X158242000Y-101624946D01*
X158249351Y-101699584D01*
X158278399Y-101795342D01*
X158325571Y-101883595D01*
X158389052Y-101960948D01*
X158408435Y-101976855D01*
X160782001Y-104350422D01*
X160782000Y-105612116D01*
X160730587Y-105633412D01*
X160537157Y-105762658D01*
X160372658Y-105927157D01*
X160243412Y-106120587D01*
X160154386Y-106335515D01*
X160109000Y-106563682D01*
X160109000Y-106796318D01*
X160154386Y-107024485D01*
X160243412Y-107239413D01*
X160372658Y-107432843D01*
X160537157Y-107597342D01*
X160730587Y-107726588D01*
X160945515Y-107815614D01*
X161173682Y-107861000D01*
X161406318Y-107861000D01*
X161634485Y-107815614D01*
X161849413Y-107726588D01*
X162042843Y-107597342D01*
X162207342Y-107432843D01*
X162336588Y-107239413D01*
X162425614Y-107024485D01*
X162471000Y-106796318D01*
X162471000Y-106563682D01*
X162425614Y-106335515D01*
X162336588Y-106120587D01*
X162207342Y-105927157D01*
X162042843Y-105762658D01*
X161849413Y-105633412D01*
X161798000Y-105612116D01*
X161798000Y-104164943D01*
X161800457Y-104139999D01*
X161798000Y-104115053D01*
X161790649Y-104040415D01*
X161761601Y-103944657D01*
X161761600Y-103944655D01*
X161714429Y-103856404D01*
X161666850Y-103798429D01*
X161650948Y-103779052D01*
X161631571Y-103763150D01*
X159258000Y-101389580D01*
X159258000Y-93668753D01*
X159291413Y-93654913D01*
X159478620Y-93529826D01*
X159637826Y-93370620D01*
X159762913Y-93183413D01*
X159849075Y-92975401D01*
X159893000Y-92754576D01*
X159893000Y-92529424D01*
X159849075Y-92308599D01*
X159762913Y-92100587D01*
X159637826Y-91913380D01*
X159478620Y-91754174D01*
X159291413Y-91629087D01*
X159083401Y-91542925D01*
X158862576Y-91499000D01*
X158637424Y-91499000D01*
X158416599Y-91542925D01*
X158208587Y-91629087D01*
X158021380Y-91754174D01*
X157862174Y-91913380D01*
X157737087Y-92100587D01*
X157650925Y-92308599D01*
X157607000Y-92529424D01*
X157353000Y-92529424D01*
X157309075Y-92308599D01*
X157222913Y-92100587D01*
X157097826Y-91913380D01*
X156938620Y-91754174D01*
X156751413Y-91629087D01*
X156742871Y-91625549D01*
X159091571Y-89276850D01*
X159110948Y-89260948D01*
X159129624Y-89238190D01*
X159174429Y-89183596D01*
X159221600Y-89095345D01*
X159230900Y-89064687D01*
X159250649Y-88999585D01*
X159258000Y-88924947D01*
X159258000Y-88924945D01*
X159260457Y-88900001D01*
X159258000Y-88875057D01*
X159258000Y-86048753D01*
X159291413Y-86034913D01*
X159478620Y-85909826D01*
X159637826Y-85750620D01*
X159762913Y-85563413D01*
X159849075Y-85355401D01*
X159893000Y-85134576D01*
X159893000Y-84909424D01*
X160147000Y-84909424D01*
X160147000Y-85134576D01*
X160190925Y-85355401D01*
X160277087Y-85563413D01*
X160402174Y-85750620D01*
X160561380Y-85909826D01*
X160748587Y-86034913D01*
X160956599Y-86121075D01*
X161177424Y-86165000D01*
X161402576Y-86165000D01*
X161623401Y-86121075D01*
X161831413Y-86034913D01*
X162018620Y-85909826D01*
X162177826Y-85750620D01*
X162302913Y-85563413D01*
X162389075Y-85355401D01*
X162433000Y-85134576D01*
X162433000Y-84909424D01*
X162389075Y-84688599D01*
X162302913Y-84480587D01*
X162177826Y-84293380D01*
X162018620Y-84134174D01*
X161831413Y-84009087D01*
X161623401Y-83922925D01*
X161402576Y-83879000D01*
X161177424Y-83879000D01*
X160956599Y-83922925D01*
X160748587Y-84009087D01*
X160561380Y-84134174D01*
X160402174Y-84293380D01*
X160277087Y-84480587D01*
X160190925Y-84688599D01*
X160147000Y-84909424D01*
X159893000Y-84909424D01*
X159849075Y-84688599D01*
X159762913Y-84480587D01*
X159637826Y-84293380D01*
X159478620Y-84134174D01*
X159291413Y-84009087D01*
X159083401Y-83922925D01*
X158862576Y-83879000D01*
X158637424Y-83879000D01*
X158416599Y-83922925D01*
X158208587Y-84009087D01*
X158021380Y-84134174D01*
X157862174Y-84293380D01*
X157737087Y-84480587D01*
X157650925Y-84688599D01*
X157607000Y-84909424D01*
X157607000Y-85134576D01*
X157650925Y-85355401D01*
X157737087Y-85563413D01*
X157862174Y-85750620D01*
X158021380Y-85909826D01*
X158208587Y-86034913D01*
X158242001Y-86048754D01*
X158242000Y-88689579D01*
X155868430Y-91063150D01*
X155849053Y-91079052D01*
X155833151Y-91098429D01*
X155833150Y-91098430D01*
X155785571Y-91156405D01*
X155752791Y-91217733D01*
X155738400Y-91244657D01*
X155722686Y-91296461D01*
X155709352Y-91340416D01*
X155699543Y-91440000D01*
X155702001Y-91464954D01*
X155702001Y-91615246D01*
X155668587Y-91629087D01*
X155481380Y-91754174D01*
X155322174Y-91913380D01*
X155197087Y-92100587D01*
X155110925Y-92308599D01*
X155067000Y-92529424D01*
X155067000Y-92537386D01*
X155030922Y-92297867D01*
X154937636Y-92038977D01*
X154875656Y-91923020D01*
X154635565Y-91856040D01*
X153849605Y-92642000D01*
X154635565Y-93427960D01*
X154875656Y-93360980D01*
X154992756Y-93111952D01*
X155059023Y-92844865D01*
X155067000Y-92674714D01*
X155067000Y-92754576D01*
X155110925Y-92975401D01*
X155197087Y-93183413D01*
X155322174Y-93370620D01*
X155481380Y-93529826D01*
X155668587Y-93654913D01*
X155702000Y-93668753D01*
X155702000Y-93769579D01*
X154729580Y-94742000D01*
X147760943Y-94742000D01*
X147735999Y-94739543D01*
X147711055Y-94742000D01*
X147711053Y-94742000D01*
X147636415Y-94749351D01*
X147540657Y-94778399D01*
X147499576Y-94800357D01*
X147452404Y-94825571D01*
X147397810Y-94870376D01*
X147375052Y-94889052D01*
X147359150Y-94908429D01*
X145708430Y-96559150D01*
X145689053Y-96575052D01*
X145673151Y-96594429D01*
X145673150Y-96594430D01*
X145625571Y-96652405D01*
X145584686Y-96728897D01*
X145578400Y-96740657D01*
X145558227Y-96807157D01*
X145450000Y-96807157D01*
X145375311Y-96814513D01*
X145303492Y-96836299D01*
X145237304Y-96871678D01*
X145179289Y-96919289D01*
X145131678Y-96977304D01*
X145096299Y-97043492D01*
X145074513Y-97115311D01*
X145067157Y-97190000D01*
X142748000Y-97190000D01*
X142748000Y-93607565D01*
X152884040Y-93607565D01*
X152951020Y-93847656D01*
X153200048Y-93964756D01*
X153467135Y-94031023D01*
X153742017Y-94043910D01*
X154014133Y-94002922D01*
X154273023Y-93909636D01*
X154388980Y-93847656D01*
X154455960Y-93607565D01*
X153670000Y-92821605D01*
X152884040Y-93607565D01*
X142748000Y-93607565D01*
X142748000Y-92734943D01*
X142750061Y-92714017D01*
X152268090Y-92714017D01*
X152309078Y-92986133D01*
X152402364Y-93245023D01*
X152464344Y-93360980D01*
X152704435Y-93427960D01*
X153490395Y-92642000D01*
X152704435Y-91856040D01*
X152464344Y-91923020D01*
X152347244Y-92172048D01*
X152280977Y-92439135D01*
X152268090Y-92714017D01*
X142750061Y-92714017D01*
X142750457Y-92709999D01*
X142747301Y-92677954D01*
X142740649Y-92610415D01*
X142711601Y-92514657D01*
X142697675Y-92488604D01*
X142664429Y-92426404D01*
X142616850Y-92368429D01*
X142600948Y-92349052D01*
X142581571Y-92333150D01*
X141924856Y-91676435D01*
X152884040Y-91676435D01*
X153670000Y-92462395D01*
X154455960Y-91676435D01*
X154388980Y-91436344D01*
X154139952Y-91319244D01*
X153872865Y-91252977D01*
X153597983Y-91240090D01*
X153325867Y-91281078D01*
X153066977Y-91374364D01*
X152951020Y-91436344D01*
X152884040Y-91676435D01*
X141924856Y-91676435D01*
X141346855Y-91098435D01*
X141330948Y-91079052D01*
X141253595Y-91015571D01*
X141165343Y-90968399D01*
X141069585Y-90939351D01*
X140994947Y-90932000D01*
X140994944Y-90932000D01*
X140970000Y-90929543D01*
X140945056Y-90932000D01*
X130109631Y-90932000D01*
X130025747Y-90848116D01*
X129900942Y-90764724D01*
X129762267Y-90707283D01*
X129615050Y-90678000D01*
X129464950Y-90678000D01*
X129317733Y-90707283D01*
X129179058Y-90764724D01*
X129054253Y-90848116D01*
X128948116Y-90954253D01*
X128864724Y-91079058D01*
X128807283Y-91217733D01*
X128778000Y-91364950D01*
X124333000Y-91364950D01*
X124333000Y-90226138D01*
X124338529Y-90169999D01*
X124333000Y-90113860D01*
X124333000Y-90113854D01*
X124316461Y-89945933D01*
X124256954Y-89749764D01*
X145284841Y-89749764D01*
X145332148Y-89973348D01*
X145553516Y-90074237D01*
X145790313Y-90130000D01*
X146033438Y-90138495D01*
X146273549Y-90099395D01*
X146501418Y-90014202D01*
X146577852Y-89973348D01*
X146625159Y-89749764D01*
X145955000Y-89079605D01*
X145284841Y-89749764D01*
X124256954Y-89749764D01*
X124251103Y-89730477D01*
X124144968Y-89531911D01*
X124002133Y-89357867D01*
X123958524Y-89322078D01*
X123614884Y-88978438D01*
X144716505Y-88978438D01*
X144755605Y-89218549D01*
X144840798Y-89446418D01*
X144881652Y-89522852D01*
X145105236Y-89570159D01*
X145775395Y-88900000D01*
X145105236Y-88229841D01*
X144881652Y-88277148D01*
X144780763Y-88498516D01*
X144725000Y-88735313D01*
X144716505Y-88978438D01*
X123614884Y-88978438D01*
X122767927Y-88131482D01*
X122732133Y-88087867D01*
X122686280Y-88050236D01*
X145284841Y-88050236D01*
X145955000Y-88720395D01*
X146625159Y-88050236D01*
X146577852Y-87826652D01*
X146356484Y-87725763D01*
X146119687Y-87670000D01*
X145876562Y-87661505D01*
X145636451Y-87700605D01*
X145408582Y-87785798D01*
X145332148Y-87826652D01*
X145284841Y-88050236D01*
X122686280Y-88050236D01*
X122558089Y-87945032D01*
X122359523Y-87838897D01*
X122144067Y-87773539D01*
X121976146Y-87757000D01*
X121976139Y-87757000D01*
X121920000Y-87751471D01*
X121863861Y-87757000D01*
X119440186Y-87757000D01*
X119428322Y-87734804D01*
X119380711Y-87676789D01*
X119322696Y-87629178D01*
X119256508Y-87593799D01*
X119184689Y-87572013D01*
X119170702Y-87570635D01*
X119291315Y-87469437D01*
X119485969Y-87226923D01*
X119629571Y-86951094D01*
X119700563Y-86732980D01*
X119580594Y-86487000D01*
X118237000Y-86487000D01*
X118237000Y-86507000D01*
X117983000Y-86507000D01*
X117983000Y-86487000D01*
X116639406Y-86487000D01*
X116519437Y-86732980D01*
X116590429Y-86951094D01*
X116734031Y-87226923D01*
X116928685Y-87469437D01*
X117049298Y-87570635D01*
X117035311Y-87572013D01*
X116963492Y-87593799D01*
X116897304Y-87629178D01*
X116839289Y-87676789D01*
X116791678Y-87734804D01*
X116779814Y-87757000D01*
X113086138Y-87757000D01*
X113029999Y-87751471D01*
X112973860Y-87757000D01*
X112973854Y-87757000D01*
X112828600Y-87771306D01*
X112805932Y-87773539D01*
X112740574Y-87793365D01*
X112590477Y-87838897D01*
X112391911Y-87945032D01*
X112217867Y-88087867D01*
X112182077Y-88131477D01*
X110991482Y-89322073D01*
X110947867Y-89357867D01*
X110805032Y-89531912D01*
X110698897Y-89730478D01*
X110672250Y-89818322D01*
X110633540Y-89945932D01*
X110633539Y-89945934D01*
X110617000Y-90113855D01*
X110617000Y-90113861D01*
X110611471Y-90170000D01*
X107073700Y-90170000D01*
X107073700Y-85987020D01*
X116519437Y-85987020D01*
X116639406Y-86233000D01*
X117983000Y-86233000D01*
X117983000Y-84934430D01*
X118237000Y-84934430D01*
X118237000Y-86233000D01*
X119580594Y-86233000D01*
X119700563Y-85987020D01*
X119629571Y-85768906D01*
X119485969Y-85493077D01*
X119291315Y-85250563D01*
X119053089Y-85050684D01*
X118780446Y-84901121D01*
X118483863Y-84807622D01*
X118237000Y-84934430D01*
X117983000Y-84934430D01*
X117736137Y-84807622D01*
X117439554Y-84901121D01*
X117166911Y-85050684D01*
X116928685Y-85250563D01*
X116734031Y-85493077D01*
X116590429Y-85768906D01*
X116519437Y-85987020D01*
X107073700Y-85987020D01*
X107073700Y-63470000D01*
X132937157Y-63470000D01*
X132937157Y-66070000D01*
X132944513Y-66144689D01*
X132966299Y-66216508D01*
X133001678Y-66282696D01*
X133049289Y-66340711D01*
X133107304Y-66388322D01*
X133173492Y-66423701D01*
X133245311Y-66445487D01*
X133320000Y-66452843D01*
X134112001Y-66452843D01*
X134112000Y-73635056D01*
X134109543Y-73660000D01*
X134112000Y-73684944D01*
X134112000Y-73684946D01*
X134119351Y-73759584D01*
X134148399Y-73855342D01*
X134195571Y-73943595D01*
X134259052Y-74020948D01*
X134278435Y-74036855D01*
X135513149Y-75271570D01*
X135529052Y-75290948D01*
X135548429Y-75306850D01*
X135606404Y-75354429D01*
X135694655Y-75401600D01*
X135694657Y-75401601D01*
X135790415Y-75430649D01*
X135865053Y-75438000D01*
X135865055Y-75438000D01*
X135889999Y-75440457D01*
X135914943Y-75438000D01*
X142029580Y-75438000D01*
X143002001Y-76410422D01*
X143002000Y-78627157D01*
X142557500Y-78627157D01*
X142482811Y-78634513D01*
X142410992Y-78656299D01*
X142344804Y-78691678D01*
X142286789Y-78739289D01*
X142239178Y-78797304D01*
X142203799Y-78863492D01*
X142182013Y-78935311D01*
X142174657Y-79010000D01*
X142174657Y-81010000D01*
X142182013Y-81084689D01*
X142203799Y-81156508D01*
X142239178Y-81222696D01*
X142286789Y-81280711D01*
X142344804Y-81328322D01*
X142410992Y-81363701D01*
X142482811Y-81385487D01*
X142557500Y-81392843D01*
X143002001Y-81392843D01*
X143002000Y-83795053D01*
X142999543Y-83820000D01*
X143002000Y-83844944D01*
X143002000Y-83844946D01*
X143009351Y-83919584D01*
X143038399Y-84015342D01*
X143085571Y-84103595D01*
X143149052Y-84180948D01*
X143168435Y-84196855D01*
X144403149Y-85431570D01*
X144419052Y-85450948D01*
X144438429Y-85466850D01*
X144496404Y-85514429D01*
X144584655Y-85561600D01*
X144584657Y-85561601D01*
X144680415Y-85590649D01*
X144755053Y-85598000D01*
X144755055Y-85598000D01*
X144779999Y-85600457D01*
X144804943Y-85598000D01*
X147109580Y-85598000D01*
X147447001Y-85935421D01*
X147447000Y-87917157D01*
X147355000Y-87917157D01*
X147280311Y-87924513D01*
X147208492Y-87946299D01*
X147142304Y-87981678D01*
X147084289Y-88029289D01*
X147036678Y-88087304D01*
X147001299Y-88153492D01*
X146979513Y-88225311D01*
X146975509Y-88265968D01*
X146804764Y-88229841D01*
X146134605Y-88900000D01*
X146804764Y-89570159D01*
X146975509Y-89534032D01*
X146979513Y-89574689D01*
X147001299Y-89646508D01*
X147036678Y-89712696D01*
X147084289Y-89770711D01*
X147142304Y-89818322D01*
X147208492Y-89853701D01*
X147280311Y-89875487D01*
X147355000Y-89882843D01*
X148555000Y-89882843D01*
X148629689Y-89875487D01*
X148701508Y-89853701D01*
X148767696Y-89818322D01*
X148825711Y-89770711D01*
X148873322Y-89712696D01*
X148908701Y-89646508D01*
X148930487Y-89574689D01*
X148937843Y-89500000D01*
X148937843Y-88300000D01*
X148930487Y-88225311D01*
X148908701Y-88153492D01*
X148873322Y-88087304D01*
X148825711Y-88029289D01*
X148767696Y-87981678D01*
X148701508Y-87946299D01*
X148629689Y-87924513D01*
X148555000Y-87917157D01*
X148463000Y-87917157D01*
X148463000Y-85749944D01*
X148465457Y-85725000D01*
X148463000Y-85700053D01*
X148455649Y-85625415D01*
X148426601Y-85529657D01*
X148379429Y-85441405D01*
X148315948Y-85364052D01*
X148296565Y-85348145D01*
X147696855Y-84748435D01*
X147680948Y-84729052D01*
X147603595Y-84665571D01*
X147515343Y-84618399D01*
X147419585Y-84589351D01*
X147344947Y-84582000D01*
X147344944Y-84582000D01*
X147320000Y-84579543D01*
X147295056Y-84582000D01*
X144990421Y-84582000D01*
X144018000Y-83609580D01*
X144018000Y-81392843D01*
X144462500Y-81392843D01*
X144537189Y-81385487D01*
X144609008Y-81363701D01*
X144675196Y-81328322D01*
X144733211Y-81280711D01*
X144780822Y-81222696D01*
X144816201Y-81156508D01*
X144837987Y-81084689D01*
X144839365Y-81070702D01*
X144940563Y-81191315D01*
X145183077Y-81385969D01*
X145458906Y-81529571D01*
X145677020Y-81600563D01*
X145923000Y-81480594D01*
X145923000Y-80137000D01*
X145903000Y-80137000D01*
X145903000Y-79883000D01*
X145923000Y-79883000D01*
X145923000Y-78539406D01*
X146177000Y-78539406D01*
X146177000Y-79883000D01*
X146197000Y-79883000D01*
X146197000Y-80137000D01*
X146177000Y-80137000D01*
X146177000Y-81480594D01*
X146422980Y-81600563D01*
X146641094Y-81529571D01*
X146916923Y-81385969D01*
X147159437Y-81191315D01*
X147359316Y-80953089D01*
X147459270Y-80770879D01*
X147475871Y-80801937D01*
X147642512Y-81004989D01*
X147845564Y-81171629D01*
X148077224Y-81295454D01*
X148082001Y-81296903D01*
X148082001Y-82525046D01*
X148079543Y-82550000D01*
X148089352Y-82649584D01*
X148118400Y-82745343D01*
X148165571Y-82833595D01*
X148213150Y-82891570D01*
X148229053Y-82910948D01*
X148248430Y-82926850D01*
X149483149Y-84161570D01*
X149499052Y-84180948D01*
X149518429Y-84196850D01*
X149576404Y-84244429D01*
X149628753Y-84272410D01*
X149664657Y-84291601D01*
X149760415Y-84320649D01*
X149835053Y-84328000D01*
X149835055Y-84328000D01*
X149859999Y-84330457D01*
X149884943Y-84328000D01*
X152257580Y-84328000D01*
X152584765Y-84655185D01*
X152570925Y-84688599D01*
X152527000Y-84909424D01*
X152527000Y-85134576D01*
X152570925Y-85355401D01*
X152657087Y-85563413D01*
X152782174Y-85750620D01*
X152941380Y-85909826D01*
X153128587Y-86034913D01*
X153336599Y-86121075D01*
X153557424Y-86165000D01*
X153782576Y-86165000D01*
X154003401Y-86121075D01*
X154211413Y-86034913D01*
X154398620Y-85909826D01*
X154557826Y-85750620D01*
X154682913Y-85563413D01*
X154769075Y-85355401D01*
X154813000Y-85134576D01*
X154813000Y-84909424D01*
X155067000Y-84909424D01*
X155067000Y-85134576D01*
X155110925Y-85355401D01*
X155197087Y-85563413D01*
X155322174Y-85750620D01*
X155481380Y-85909826D01*
X155668587Y-86034913D01*
X155876599Y-86121075D01*
X156097424Y-86165000D01*
X156322576Y-86165000D01*
X156543401Y-86121075D01*
X156751413Y-86034913D01*
X156938620Y-85909826D01*
X157097826Y-85750620D01*
X157222913Y-85563413D01*
X157309075Y-85355401D01*
X157353000Y-85134576D01*
X157353000Y-84909424D01*
X157309075Y-84688599D01*
X157222913Y-84480587D01*
X157097826Y-84293380D01*
X156938620Y-84134174D01*
X156751413Y-84009087D01*
X156543401Y-83922925D01*
X156322576Y-83879000D01*
X156097424Y-83879000D01*
X155876599Y-83922925D01*
X155668587Y-84009087D01*
X155481380Y-84134174D01*
X155322174Y-84293380D01*
X155197087Y-84480587D01*
X155110925Y-84688599D01*
X155067000Y-84909424D01*
X154813000Y-84909424D01*
X154769075Y-84688599D01*
X154682913Y-84480587D01*
X154557826Y-84293380D01*
X154398620Y-84134174D01*
X154211413Y-84009087D01*
X154202871Y-84005549D01*
X155150421Y-83058000D01*
X159995056Y-83058000D01*
X160020000Y-83060457D01*
X160044944Y-83058000D01*
X163619580Y-83058000D01*
X164456000Y-83894421D01*
X164456000Y-83980946D01*
X164456001Y-83980956D01*
X164456000Y-91229580D01*
X163551580Y-92134000D01*
X162316753Y-92134000D01*
X162302913Y-92100587D01*
X162177826Y-91913380D01*
X162018620Y-91754174D01*
X161831413Y-91629087D01*
X161623401Y-91542925D01*
X161402576Y-91499000D01*
X161177424Y-91499000D01*
X160956599Y-91542925D01*
X160748587Y-91629087D01*
X160561380Y-91754174D01*
X160402174Y-91913380D01*
X160277087Y-92100587D01*
X160190925Y-92308599D01*
X160147000Y-92529424D01*
X160147000Y-92754576D01*
X160190925Y-92975401D01*
X160277087Y-93183413D01*
X160402174Y-93370620D01*
X160561380Y-93529826D01*
X160748587Y-93654913D01*
X160782000Y-93668753D01*
X160782001Y-97992116D01*
X160730587Y-98013412D01*
X160537157Y-98142658D01*
X160372658Y-98307157D01*
X160243412Y-98500587D01*
X160154386Y-98715515D01*
X160109000Y-98943682D01*
X160109000Y-99176318D01*
X160154386Y-99404485D01*
X160243412Y-99619413D01*
X160372658Y-99812843D01*
X160537157Y-99977342D01*
X160730587Y-100106588D01*
X160945515Y-100195614D01*
X161173682Y-100241000D01*
X161406318Y-100241000D01*
X161634485Y-100195614D01*
X161849413Y-100106588D01*
X162042843Y-99977342D01*
X162207342Y-99812843D01*
X162336588Y-99619413D01*
X162425614Y-99404485D01*
X162471000Y-99176318D01*
X162471000Y-98943682D01*
X162425614Y-98715515D01*
X162336588Y-98500587D01*
X162207342Y-98307157D01*
X162042843Y-98142658D01*
X161849413Y-98013412D01*
X161798000Y-97992116D01*
X161798000Y-93668753D01*
X161831413Y-93654913D01*
X162018620Y-93529826D01*
X162177826Y-93370620D01*
X162302913Y-93183413D01*
X162316753Y-93150000D01*
X163737056Y-93150000D01*
X163762000Y-93152457D01*
X163786944Y-93150000D01*
X163786947Y-93150000D01*
X163861585Y-93142649D01*
X163957343Y-93113601D01*
X164045595Y-93066429D01*
X164122948Y-93002948D01*
X164138855Y-92983565D01*
X165305565Y-91816855D01*
X165324948Y-91800948D01*
X165388429Y-91723595D01*
X165435601Y-91635343D01*
X165464649Y-91539585D01*
X165472000Y-91464947D01*
X165472000Y-91464944D01*
X165474457Y-91440000D01*
X165472000Y-91415053D01*
X165472000Y-83708943D01*
X165474457Y-83683999D01*
X165468612Y-83624655D01*
X165464649Y-83584416D01*
X165435601Y-83488657D01*
X165419777Y-83459052D01*
X165388429Y-83400404D01*
X165340850Y-83342429D01*
X165324948Y-83323052D01*
X165305571Y-83307150D01*
X164206855Y-82208435D01*
X164190948Y-82189052D01*
X164113595Y-82125571D01*
X164025343Y-82078399D01*
X163929585Y-82049351D01*
X163854947Y-82042000D01*
X163854944Y-82042000D01*
X163830000Y-82039543D01*
X163805056Y-82042000D01*
X161246421Y-82042000D01*
X161631571Y-81656850D01*
X161650948Y-81640948D01*
X161684091Y-81600563D01*
X161714429Y-81563596D01*
X161761600Y-81475345D01*
X161761601Y-81475342D01*
X161790649Y-81379585D01*
X161798000Y-81304947D01*
X161798000Y-81304945D01*
X161800457Y-81280001D01*
X161798000Y-81255057D01*
X161798000Y-79807884D01*
X161849413Y-79786588D01*
X162042843Y-79657342D01*
X162207342Y-79492843D01*
X162336588Y-79299413D01*
X162425614Y-79084485D01*
X162471000Y-78856318D01*
X162471000Y-78623682D01*
X162425614Y-78395515D01*
X162336588Y-78180587D01*
X162207342Y-77987157D01*
X162042843Y-77822658D01*
X161849413Y-77693412D01*
X161634485Y-77604386D01*
X161406318Y-77559000D01*
X161173682Y-77559000D01*
X160945515Y-77604386D01*
X160730587Y-77693412D01*
X160537157Y-77822658D01*
X160372658Y-77987157D01*
X160243412Y-78180587D01*
X160154386Y-78395515D01*
X160109000Y-78623682D01*
X160109000Y-78856318D01*
X160154386Y-79084485D01*
X160243412Y-79299413D01*
X160372658Y-79492843D01*
X160537157Y-79657342D01*
X160730587Y-79786588D01*
X160782001Y-79807884D01*
X160782000Y-81069579D01*
X159809580Y-82042000D01*
X154964943Y-82042000D01*
X154939999Y-82039543D01*
X154915055Y-82042000D01*
X154915053Y-82042000D01*
X154840415Y-82049351D01*
X154744657Y-82078399D01*
X154744655Y-82078400D01*
X154656404Y-82125571D01*
X154601810Y-82170376D01*
X154579052Y-82189052D01*
X154563150Y-82208429D01*
X153328430Y-83443150D01*
X153309053Y-83459052D01*
X153293151Y-83478429D01*
X153293150Y-83478430D01*
X153245571Y-83536405D01*
X153198400Y-83624657D01*
X153169352Y-83720416D01*
X153161953Y-83795533D01*
X152844855Y-83478435D01*
X152828948Y-83459052D01*
X152751595Y-83395571D01*
X152663343Y-83348399D01*
X152567585Y-83319351D01*
X152492947Y-83312000D01*
X152492944Y-83312000D01*
X152468000Y-83309543D01*
X152443056Y-83312000D01*
X150070421Y-83312000D01*
X149098000Y-82339580D01*
X149098000Y-81296903D01*
X149102777Y-81295454D01*
X149334437Y-81171629D01*
X149537489Y-81004989D01*
X149704129Y-80801936D01*
X149827954Y-80570276D01*
X149904205Y-80318911D01*
X149923500Y-80123007D01*
X149923500Y-79896992D01*
X149904205Y-79701088D01*
X149827954Y-79449723D01*
X149704129Y-79218063D01*
X149537489Y-79015011D01*
X149334436Y-78848371D01*
X149102776Y-78724546D01*
X148851411Y-78648295D01*
X148590000Y-78622548D01*
X148328588Y-78648295D01*
X148077223Y-78724546D01*
X147845563Y-78848371D01*
X147642511Y-79015011D01*
X147475871Y-79218064D01*
X147459271Y-79249121D01*
X147359316Y-79066911D01*
X147159437Y-78828685D01*
X146916923Y-78634031D01*
X146641094Y-78490429D01*
X146422980Y-78419437D01*
X146177000Y-78539406D01*
X145923000Y-78539406D01*
X145677020Y-78419437D01*
X145458906Y-78490429D01*
X145183077Y-78634031D01*
X144940563Y-78828685D01*
X144839365Y-78949298D01*
X144837987Y-78935311D01*
X144816201Y-78863492D01*
X144780822Y-78797304D01*
X144733211Y-78739289D01*
X144675196Y-78691678D01*
X144609008Y-78656299D01*
X144537189Y-78634513D01*
X144462500Y-78627157D01*
X144018000Y-78627157D01*
X144018000Y-76224943D01*
X144020457Y-76199999D01*
X144018000Y-76175053D01*
X144010649Y-76100415D01*
X143981601Y-76004657D01*
X143981600Y-76004655D01*
X143934429Y-75916404D01*
X143886850Y-75858429D01*
X143870948Y-75839052D01*
X143851571Y-75823150D01*
X142616855Y-74588435D01*
X142600948Y-74569052D01*
X142523595Y-74505571D01*
X142435343Y-74458399D01*
X142339585Y-74429351D01*
X142264947Y-74422000D01*
X142264944Y-74422000D01*
X142240000Y-74419543D01*
X142215056Y-74422000D01*
X136100421Y-74422000D01*
X135128000Y-73449580D01*
X135128000Y-66452843D01*
X135920000Y-66452843D01*
X135994689Y-66445487D01*
X136066508Y-66423701D01*
X136132696Y-66388322D01*
X136190711Y-66340711D01*
X136238322Y-66282696D01*
X136273701Y-66216508D01*
X136295487Y-66144689D01*
X136297995Y-66119224D01*
X138530381Y-66119224D01*
X138662317Y-66414312D01*
X139003045Y-66585159D01*
X139370557Y-66686250D01*
X139750729Y-66713701D01*
X140128951Y-66666457D01*
X140490690Y-66546333D01*
X140737683Y-66414312D01*
X140869619Y-66119224D01*
X139700000Y-64949605D01*
X138530381Y-66119224D01*
X136297995Y-66119224D01*
X136302843Y-66070000D01*
X136302843Y-64820729D01*
X137756299Y-64820729D01*
X137803543Y-65198951D01*
X137923667Y-65560690D01*
X138055688Y-65807683D01*
X138350776Y-65939619D01*
X139520395Y-64770000D01*
X139879605Y-64770000D01*
X141049224Y-65939619D01*
X141344312Y-65807683D01*
X141515159Y-65466955D01*
X141616250Y-65099443D01*
X141643701Y-64719271D01*
X141596457Y-64341049D01*
X141476333Y-63979310D01*
X141344312Y-63732317D01*
X141049224Y-63600381D01*
X139879605Y-64770000D01*
X139520395Y-64770000D01*
X138350776Y-63600381D01*
X138055688Y-63732317D01*
X137884841Y-64073045D01*
X137783750Y-64440557D01*
X137756299Y-64820729D01*
X136302843Y-64820729D01*
X136302843Y-63470000D01*
X136297996Y-63420776D01*
X138530381Y-63420776D01*
X139700000Y-64590395D01*
X140869619Y-63420776D01*
X140737683Y-63125688D01*
X140396955Y-62954841D01*
X140029443Y-62853750D01*
X139649271Y-62826299D01*
X139271049Y-62873543D01*
X138909310Y-62993667D01*
X138662317Y-63125688D01*
X138530381Y-63420776D01*
X136297996Y-63420776D01*
X136295487Y-63395311D01*
X136273701Y-63323492D01*
X136238322Y-63257304D01*
X136190711Y-63199289D01*
X136132696Y-63151678D01*
X136066508Y-63116299D01*
X135994689Y-63094513D01*
X135920000Y-63087157D01*
X133320000Y-63087157D01*
X133245311Y-63094513D01*
X133173492Y-63116299D01*
X133107304Y-63151678D01*
X133049289Y-63199289D01*
X133001678Y-63257304D01*
X132966299Y-63323492D01*
X132944513Y-63395311D01*
X132937157Y-63470000D01*
X107073700Y-63470000D01*
X107073700Y-62400000D01*
X149647157Y-62400000D01*
X149647157Y-64600000D01*
X149654513Y-64674689D01*
X149676299Y-64746508D01*
X149711678Y-64812696D01*
X149759289Y-64870711D01*
X149817304Y-64918322D01*
X149883492Y-64953701D01*
X149955311Y-64975487D01*
X150030000Y-64982843D01*
X150622000Y-64982843D01*
X150622001Y-69727397D01*
X150428483Y-69807555D01*
X150185917Y-69969632D01*
X149979632Y-70175917D01*
X149817555Y-70418483D01*
X149705914Y-70688008D01*
X149649000Y-70974134D01*
X149649000Y-71265866D01*
X149705914Y-71551992D01*
X149817555Y-71821517D01*
X149979632Y-72064083D01*
X150185917Y-72270368D01*
X150428483Y-72432445D01*
X150622001Y-72512603D01*
X150622001Y-73635046D01*
X150619543Y-73660000D01*
X150629352Y-73759584D01*
X150658400Y-73855343D01*
X150705571Y-73943595D01*
X150753150Y-74001570D01*
X150769053Y-74020948D01*
X150788430Y-74036850D01*
X153162000Y-76410421D01*
X153162001Y-77672116D01*
X153110587Y-77693412D01*
X152917157Y-77822658D01*
X152752658Y-77987157D01*
X152623412Y-78180587D01*
X152534386Y-78395515D01*
X152489000Y-78623682D01*
X152489000Y-78856318D01*
X152534386Y-79084485D01*
X152623412Y-79299413D01*
X152752658Y-79492843D01*
X152917157Y-79657342D01*
X153110587Y-79786588D01*
X153325515Y-79875614D01*
X153553682Y-79921000D01*
X153786318Y-79921000D01*
X154014485Y-79875614D01*
X154229413Y-79786588D01*
X154422843Y-79657342D01*
X154587342Y-79492843D01*
X154716588Y-79299413D01*
X154805614Y-79084485D01*
X154851000Y-78856318D01*
X154851000Y-78623682D01*
X154805614Y-78395515D01*
X154716588Y-78180587D01*
X154587342Y-77987157D01*
X154422843Y-77822658D01*
X154229413Y-77693412D01*
X154178000Y-77672116D01*
X154178000Y-76224943D01*
X154180457Y-76199999D01*
X154178000Y-76175053D01*
X154170649Y-76100415D01*
X154141601Y-76004657D01*
X154141600Y-76004655D01*
X154094429Y-75916404D01*
X154046850Y-75858429D01*
X154030948Y-75839052D01*
X154011571Y-75823150D01*
X151638000Y-73449580D01*
X151638000Y-72512602D01*
X151831517Y-72432445D01*
X152074083Y-72270368D01*
X152280368Y-72064083D01*
X152442445Y-71821517D01*
X152554086Y-71551992D01*
X152611000Y-71265866D01*
X152611000Y-70974134D01*
X152554086Y-70688008D01*
X152442445Y-70418483D01*
X152280368Y-70175917D01*
X152124451Y-70020000D01*
X159807157Y-70020000D01*
X159807157Y-72220000D01*
X159814513Y-72294689D01*
X159836299Y-72366508D01*
X159871678Y-72432696D01*
X159919289Y-72490711D01*
X159977304Y-72538322D01*
X160043492Y-72573701D01*
X160115311Y-72595487D01*
X160190000Y-72602843D01*
X162390000Y-72602843D01*
X162464689Y-72595487D01*
X162536508Y-72573701D01*
X162602696Y-72538322D01*
X162660711Y-72490711D01*
X162708322Y-72432696D01*
X162743701Y-72366508D01*
X162765487Y-72294689D01*
X162772843Y-72220000D01*
X162772843Y-71628000D01*
X168699580Y-71628000D01*
X169672001Y-72600422D01*
X169672000Y-92685053D01*
X169669543Y-92710000D01*
X169672000Y-92734944D01*
X169672000Y-92734946D01*
X169679351Y-92809584D01*
X169708399Y-92905342D01*
X169755571Y-92993595D01*
X169819052Y-93070948D01*
X169838435Y-93086855D01*
X171073150Y-94321571D01*
X171089052Y-94340948D01*
X171108429Y-94356850D01*
X171166404Y-94404429D01*
X171218753Y-94432410D01*
X171254657Y-94451601D01*
X171350415Y-94480649D01*
X171425053Y-94488000D01*
X171425055Y-94488000D01*
X171449999Y-94490457D01*
X171474943Y-94488000D01*
X173791630Y-94488000D01*
X173885521Y-94714674D01*
X174055259Y-94968705D01*
X174271295Y-95184741D01*
X174525326Y-95354479D01*
X174807590Y-95471396D01*
X175107240Y-95531000D01*
X175412760Y-95531000D01*
X175712410Y-95471396D01*
X175994674Y-95354479D01*
X176248705Y-95184741D01*
X176464741Y-94968705D01*
X176634479Y-94714674D01*
X176751396Y-94432410D01*
X176811000Y-94132760D01*
X176811000Y-93827240D01*
X176751396Y-93527590D01*
X176634479Y-93245326D01*
X176464741Y-92991295D01*
X176248705Y-92775259D01*
X175994674Y-92605521D01*
X175712410Y-92488604D01*
X175412760Y-92429000D01*
X175107240Y-92429000D01*
X174807590Y-92488604D01*
X174525326Y-92605521D01*
X174271295Y-92775259D01*
X174055259Y-92991295D01*
X173885521Y-93245326D01*
X173791630Y-93472000D01*
X171660421Y-93472000D01*
X170688000Y-92499580D01*
X170688000Y-88827240D01*
X173709000Y-88827240D01*
X173709000Y-89132760D01*
X173768604Y-89432410D01*
X173885521Y-89714674D01*
X174055259Y-89968705D01*
X174271295Y-90184741D01*
X174525326Y-90354479D01*
X174807590Y-90471396D01*
X175107240Y-90531000D01*
X175412760Y-90531000D01*
X175712410Y-90471396D01*
X175994674Y-90354479D01*
X176248705Y-90184741D01*
X176464741Y-89968705D01*
X176634479Y-89714674D01*
X176751396Y-89432410D01*
X176811000Y-89132760D01*
X176811000Y-88827240D01*
X176751396Y-88527590D01*
X176634479Y-88245326D01*
X176464741Y-87991295D01*
X176248705Y-87775259D01*
X175994674Y-87605521D01*
X175712410Y-87488604D01*
X175412760Y-87429000D01*
X175107240Y-87429000D01*
X174807590Y-87488604D01*
X174525326Y-87605521D01*
X174271295Y-87775259D01*
X174055259Y-87991295D01*
X173885521Y-88245326D01*
X173768604Y-88527590D01*
X173709000Y-88827240D01*
X170688000Y-88827240D01*
X170688000Y-72414943D01*
X170690457Y-72389999D01*
X170688000Y-72365053D01*
X170680649Y-72290415D01*
X170651601Y-72194657D01*
X170651600Y-72194655D01*
X170604429Y-72106404D01*
X170556850Y-72048429D01*
X170540948Y-72029052D01*
X170521571Y-72013150D01*
X169286855Y-70778435D01*
X169270948Y-70759052D01*
X169193595Y-70695571D01*
X169105343Y-70648399D01*
X169009585Y-70619351D01*
X168934947Y-70612000D01*
X168934944Y-70612000D01*
X168910000Y-70609543D01*
X168885056Y-70612000D01*
X162772843Y-70612000D01*
X162772843Y-70020000D01*
X162765487Y-69945311D01*
X162743701Y-69873492D01*
X162708322Y-69807304D01*
X162660711Y-69749289D01*
X162602696Y-69701678D01*
X162536508Y-69666299D01*
X162464689Y-69644513D01*
X162390000Y-69637157D01*
X160190000Y-69637157D01*
X160115311Y-69644513D01*
X160043492Y-69666299D01*
X159977304Y-69701678D01*
X159919289Y-69749289D01*
X159871678Y-69807304D01*
X159836299Y-69873492D01*
X159814513Y-69945311D01*
X159807157Y-70020000D01*
X152124451Y-70020000D01*
X152074083Y-69969632D01*
X151831517Y-69807555D01*
X151638000Y-69727398D01*
X151638000Y-64982843D01*
X152230000Y-64982843D01*
X152304689Y-64975487D01*
X152376508Y-64953701D01*
X152442696Y-64918322D01*
X152500711Y-64870711D01*
X152548322Y-64812696D01*
X152583701Y-64746508D01*
X152605487Y-64674689D01*
X152612843Y-64600000D01*
X152612843Y-63354134D01*
X159809000Y-63354134D01*
X159809000Y-63645866D01*
X159865914Y-63931992D01*
X159977555Y-64201517D01*
X160139632Y-64444083D01*
X160345917Y-64650368D01*
X160588483Y-64812445D01*
X160858008Y-64924086D01*
X161144134Y-64981000D01*
X161435866Y-64981000D01*
X161721992Y-64924086D01*
X161991517Y-64812445D01*
X162234083Y-64650368D01*
X162440368Y-64444083D01*
X162602445Y-64201517D01*
X162682602Y-64008000D01*
X173779580Y-64008000D01*
X174752000Y-64980421D01*
X174752001Y-82351630D01*
X174525326Y-82445521D01*
X174271295Y-82615259D01*
X174055259Y-82831295D01*
X173885521Y-83085326D01*
X173768604Y-83367590D01*
X173709000Y-83667240D01*
X173709000Y-83972760D01*
X173768604Y-84272410D01*
X173885521Y-84554674D01*
X174055259Y-84808705D01*
X174271295Y-85024741D01*
X174525326Y-85194479D01*
X174807590Y-85311396D01*
X175107240Y-85371000D01*
X175412760Y-85371000D01*
X175712410Y-85311396D01*
X175994674Y-85194479D01*
X176248705Y-85024741D01*
X176464741Y-84808705D01*
X176634479Y-84554674D01*
X176751396Y-84272410D01*
X176811000Y-83972760D01*
X176811000Y-83667240D01*
X176751396Y-83367590D01*
X176634479Y-83085326D01*
X176464741Y-82831295D01*
X176248705Y-82615259D01*
X175994674Y-82445521D01*
X175768000Y-82351630D01*
X175768000Y-64794943D01*
X175770457Y-64769999D01*
X175768000Y-64745053D01*
X175760649Y-64670415D01*
X175731601Y-64574657D01*
X175731600Y-64574655D01*
X175684429Y-64486404D01*
X175636850Y-64428429D01*
X175620948Y-64409052D01*
X175601571Y-64393150D01*
X174366855Y-63158435D01*
X174350948Y-63139052D01*
X174273595Y-63075571D01*
X174185343Y-63028399D01*
X174089585Y-62999351D01*
X174014947Y-62992000D01*
X174014944Y-62992000D01*
X173990000Y-62989543D01*
X173965056Y-62992000D01*
X162682602Y-62992000D01*
X162602445Y-62798483D01*
X162440368Y-62555917D01*
X162234083Y-62349632D01*
X161991517Y-62187555D01*
X161721992Y-62075914D01*
X161435866Y-62019000D01*
X161144134Y-62019000D01*
X160858008Y-62075914D01*
X160588483Y-62187555D01*
X160345917Y-62349632D01*
X160139632Y-62555917D01*
X159977555Y-62798483D01*
X159865914Y-63068008D01*
X159809000Y-63354134D01*
X152612843Y-63354134D01*
X152612843Y-62400000D01*
X152605487Y-62325311D01*
X152583701Y-62253492D01*
X152548322Y-62187304D01*
X152500711Y-62129289D01*
X152442696Y-62081678D01*
X152376508Y-62046299D01*
X152304689Y-62024513D01*
X152230000Y-62017157D01*
X150030000Y-62017157D01*
X149955311Y-62024513D01*
X149883492Y-62046299D01*
X149817304Y-62081678D01*
X149759289Y-62129289D01*
X149711678Y-62187304D01*
X149676299Y-62253492D01*
X149654513Y-62325311D01*
X149647157Y-62400000D01*
X107073700Y-62400000D01*
X107073700Y-59477665D01*
X112144131Y-59477665D01*
X112144131Y-59902335D01*
X112226980Y-60318844D01*
X112389494Y-60711187D01*
X112625427Y-61064286D01*
X112925714Y-61364573D01*
X113278813Y-61600506D01*
X113671156Y-61763020D01*
X114087665Y-61845869D01*
X114512335Y-61845869D01*
X114928844Y-61763020D01*
X115321187Y-61600506D01*
X115674286Y-61364573D01*
X115974573Y-61064286D01*
X116210506Y-60711187D01*
X116373020Y-60318844D01*
X116455869Y-59902335D01*
X116455869Y-59477665D01*
X185804131Y-59477665D01*
X185804131Y-59902335D01*
X185886980Y-60318844D01*
X186049494Y-60711187D01*
X186285427Y-61064286D01*
X186585714Y-61364573D01*
X186938813Y-61600506D01*
X187331156Y-61763020D01*
X187747665Y-61845869D01*
X188172335Y-61845869D01*
X188588844Y-61763020D01*
X188981187Y-61600506D01*
X189334286Y-61364573D01*
X189634573Y-61064286D01*
X189870506Y-60711187D01*
X190033020Y-60318844D01*
X190115869Y-59902335D01*
X190115869Y-59477665D01*
X190033020Y-59061156D01*
X189870506Y-58668813D01*
X189634573Y-58315714D01*
X189334286Y-58015427D01*
X188981187Y-57779494D01*
X188588844Y-57616980D01*
X188172335Y-57534131D01*
X187747665Y-57534131D01*
X187331156Y-57616980D01*
X186938813Y-57779494D01*
X186585714Y-58015427D01*
X186285427Y-58315714D01*
X186049494Y-58668813D01*
X185886980Y-59061156D01*
X185804131Y-59477665D01*
X116455869Y-59477665D01*
X116373020Y-59061156D01*
X116210506Y-58668813D01*
X115974573Y-58315714D01*
X115674286Y-58015427D01*
X115321187Y-57779494D01*
X114928844Y-57616980D01*
X114512335Y-57534131D01*
X114087665Y-57534131D01*
X113671156Y-57616980D01*
X113278813Y-57779494D01*
X112925714Y-58015427D01*
X112625427Y-58315714D01*
X112389494Y-58668813D01*
X112226980Y-59061156D01*
X112144131Y-59477665D01*
X107073700Y-59477665D01*
X107073700Y-52463700D01*
X195186301Y-52463700D01*
X195186300Y-127876300D01*
G37*
%TD.AperFunction*%
%TD*%
M02*
