%TF.GenerationSoftware,KiCad,Pcbnew,5.1.9-73d0e3b20d~88~ubuntu20.04.1*%
%TF.CreationDate,2021-03-01T20:45:33+00:00*%
%TF.ProjectId,variable_duty_cycle_module,66697273-745f-4636-9972-637569742e6b,rev?*%
%TF.SameCoordinates,Original*%
%TF.FileFunction,Copper,L2,Bot*%
%TF.FilePolarity,Positive*%
%FSLAX46Y46*%
G04 Gerber Fmt 4.6, Leading zero omitted, Abs format (unit mm)*
G04 Created by KiCad (PCBNEW 5.1.9-73d0e3b20d~88~ubuntu20.04.1) date 2021-03-01 20:45:33*
%MOMM*%
%LPD*%
G01*
G04 APERTURE LIST*
%TA.AperFunction,ComponentPad*%
%ADD10C,2.600000*%
%TD*%
%TA.AperFunction,ComponentPad*%
%ADD11R,2.600000X2.600000*%
%TD*%
%TA.AperFunction,ComponentPad*%
%ADD12C,2.340000*%
%TD*%
%TA.AperFunction,ComponentPad*%
%ADD13O,2.000000X1.905000*%
%TD*%
%TA.AperFunction,ComponentPad*%
%ADD14R,2.000000X1.905000*%
%TD*%
%TA.AperFunction,ComponentPad*%
%ADD15C,1.524000*%
%TD*%
%TA.AperFunction,ComponentPad*%
%ADD16R,1.200000X1.200000*%
%TD*%
%TA.AperFunction,ComponentPad*%
%ADD17C,1.200000*%
%TD*%
%TA.AperFunction,ComponentPad*%
%ADD18C,1.600000*%
%TD*%
%TA.AperFunction,ComponentPad*%
%ADD19O,2.200000X2.200000*%
%TD*%
%TA.AperFunction,ComponentPad*%
%ADD20R,2.200000X2.200000*%
%TD*%
%TA.AperFunction,ComponentPad*%
%ADD21O,1.600000X1.600000*%
%TD*%
%TA.AperFunction,ComponentPad*%
%ADD22R,1.905000X2.000000*%
%TD*%
%TA.AperFunction,ComponentPad*%
%ADD23O,1.905000X2.000000*%
%TD*%
%TA.AperFunction,ViaPad*%
%ADD24C,0.762000*%
%TD*%
%TA.AperFunction,Conductor*%
%ADD25C,0.254000*%
%TD*%
G04 APERTURE END LIST*
D10*
%TO.P,J1,2*%
%TO.N,Net-(J1-Pad2)*%
X134620000Y-115570000D03*
D11*
%TO.P,J1,1*%
%TO.N,Net-(J1-Pad1)*%
X139700000Y-115570000D03*
%TD*%
D12*
%TO.P,VR1,3*%
%TO.N,Net-(D2-Pad1)*%
X175260000Y-93980000D03*
%TO.P,VR1,2*%
%TO.N,Net-(C1-Pad1)*%
X175260000Y-88980000D03*
%TO.P,VR1,1*%
%TO.N,Net-(D1-Pad2)*%
X175260000Y-83820000D03*
%TD*%
D13*
%TO.P,Q1,3*%
%TO.N,GND*%
X118110000Y-86360000D03*
%TO.P,Q1,2*%
%TO.N,Net-(Q1-Pad2)*%
X118110000Y-91440000D03*
D14*
%TO.P,Q1,1*%
%TO.N,Net-(J1-Pad1)*%
X118110000Y-88900000D03*
%TD*%
D15*
%TO.P,U1,8*%
%TO.N,/9VDC*%
X153670000Y-85022000D03*
%TO.P,U1,7*%
%TO.N,Net-(D1-Pad1)*%
X156210000Y-85022000D03*
%TO.P,U1,6*%
%TO.N,Net-(C1-Pad1)*%
X158750000Y-85022000D03*
%TO.P,U1,5*%
%TO.N,Net-(U1-Pad5)*%
X161290000Y-85022000D03*
%TO.P,U1,4*%
%TO.N,/9VDC*%
X161290000Y-92642000D03*
%TO.P,U1,3*%
%TO.N,Net-(R3-Pad2)*%
X158750000Y-92642000D03*
%TO.P,U1,2*%
%TO.N,Net-(C1-Pad1)*%
X156210000Y-92642000D03*
%TO.P,U1,1*%
%TO.N,GND*%
X153670000Y-92642000D03*
%TD*%
D10*
%TO.P,J2,2*%
%TO.N,GND*%
X139700000Y-64770000D03*
D11*
%TO.P,J2,1*%
%TO.N,VCC*%
X134620000Y-64770000D03*
%TD*%
D16*
%TO.P,C1,1*%
%TO.N,Net-(C1-Pad1)*%
X146050000Y-97790000D03*
D17*
%TO.P,C1,2*%
%TO.N,GND*%
X148050000Y-97790000D03*
%TD*%
%TO.P,C3,2*%
%TO.N,GND*%
X145955000Y-88900000D03*
D16*
%TO.P,C3,1*%
%TO.N,VCC*%
X147955000Y-88900000D03*
%TD*%
D18*
%TO.P,C4,1*%
%TO.N,/9VDC*%
X161290000Y-99060000D03*
%TO.P,C4,2*%
%TO.N,GND*%
X156290000Y-99060000D03*
%TD*%
D19*
%TO.P,D1,2*%
%TO.N,Net-(D1-Pad2)*%
X161290000Y-63500000D03*
D20*
%TO.P,D1,1*%
%TO.N,Net-(D1-Pad1)*%
X151130000Y-63500000D03*
%TD*%
D19*
%TO.P,D2,2*%
%TO.N,Net-(D1-Pad1)*%
X151130000Y-71120000D03*
D20*
%TO.P,D2,1*%
%TO.N,Net-(D2-Pad1)*%
X161290000Y-71120000D03*
%TD*%
D18*
%TO.P,R1,1*%
%TO.N,Net-(D1-Pad1)*%
X153670000Y-78740000D03*
D21*
%TO.P,R1,2*%
%TO.N,/9VDC*%
X161290000Y-78740000D03*
%TD*%
D18*
%TO.P,R2,1*%
%TO.N,Net-(Q1-Pad2)*%
X153670000Y-114300000D03*
D21*
%TO.P,R2,2*%
%TO.N,GND*%
X161290000Y-114300000D03*
%TD*%
%TO.P,R3,2*%
%TO.N,Net-(R3-Pad2)*%
X161290000Y-106680000D03*
D18*
%TO.P,R3,1*%
%TO.N,Net-(Q1-Pad2)*%
X153670000Y-106680000D03*
%TD*%
D22*
%TO.P,U2,1*%
%TO.N,VCC*%
X143510000Y-80010000D03*
D23*
%TO.P,U2,2*%
%TO.N,GND*%
X146050000Y-80010000D03*
%TO.P,U2,3*%
%TO.N,/9VDC*%
X148590000Y-80010000D03*
%TD*%
D24*
%TO.N,Net-(Q1-Pad2)*%
X129540000Y-91440000D03*
%TD*%
D25*
%TO.N,Net-(C1-Pad1)*%
X170180000Y-88980000D02*
X175260000Y-88980000D01*
X158830000Y-88980000D02*
X170180000Y-88980000D01*
X158830000Y-88980000D02*
X157400000Y-88980000D01*
X156210000Y-90170000D02*
X156210000Y-92642000D01*
X157400000Y-88980000D02*
X156210000Y-90170000D01*
%TO.N,Net-(D1-Pad1)*%
X156210000Y-85022000D02*
X156210000Y-83820000D01*
X156210000Y-83820000D02*
X153670000Y-81280000D01*
X153670000Y-81280000D02*
X153670000Y-78740000D01*
%TO.N,Net-(Q1-Pad2)*%
X129540000Y-91440000D02*
X121920000Y-91440000D01*
X121920000Y-91440000D02*
X118110000Y-91440000D01*
%TD*%
M02*
