M48
; DRILL file {KiCad 5.1.9-73d0e3b20d~88~ubuntu20.04.1} date Mon Mar  1 20:45:34 2021
; FORMAT={-:-/ absolute / inch / decimal}
; #@! TF.CreationDate,2021-03-01T20:45:34+00:00
; #@! TF.GenerationSoftware,Kicad,Pcbnew,5.1.9-73d0e3b20d~88~ubuntu20.04.1
FMAT,2
INCH
T1C0.0150
T2C0.0236
T3C0.0300
T4C0.0315
T5C0.0433
T6C0.0512
%
G90
G05
T1
X5.1Y-3.6
T2
X5.7463Y-3.5
X5.75Y-3.85
X5.825Y-3.5
X5.8287Y-3.85
T3
X6.05Y-3.3473
X6.05Y-3.6473
X6.15Y-3.3473
X6.15Y-3.6473
X6.25Y-3.3473
X6.25Y-3.6473
X6.35Y-3.3473
X6.35Y-3.6473
T4
X6.05Y-3.1
X6.05Y-4.2
X6.05Y-4.5
X6.1531Y-3.9
X6.35Y-3.1
X6.35Y-3.9
X6.35Y-4.2
X6.35Y-4.5
T5
X4.65Y-3.4
X4.65Y-3.5
X4.65Y-3.6
X5.65Y-3.15
X5.75Y-3.15
X5.85Y-3.15
X5.95Y-2.5
X5.95Y-2.8
X6.35Y-2.5
X6.35Y-2.8
T6
X5.3Y-2.55
X5.3Y-4.55
X5.5Y-2.55
X5.5Y-4.55
X6.9Y-3.3
X6.9Y-3.5031
X6.9Y-3.7
T0
M30
